<svg xmlns="http://www.w3.org/2000/svg" xmlns:xlink="http://www.w3.org/1999/xlink" width="226" height="109" viewBox="0 0 226 109"><defs><path id="5f9sa" d="M905.478 1821.51a54.201 54.201 0 0 1 7.826-28.033c-19.787-12.962-46.333-7.433-59.295 12.354-12.96 19.787-7.433 46.333 12.354 59.295 17.179 11.256 39.933 8.733 54.226-6.016a54.232 54.232 0 0 1-15.11-37.6z"/><path id="5f9sb" d="M1030.072 1786.468a42.51 42.51 0 0 0-23.4 7.009c12.7 21.005 9.713 47.922-7.282 65.633 16.478 16.957 43.58 17.346 60.537.872 16.956-16.473 17.346-43.58.872-60.536a42.815 42.815 0 0 0-30.727-12.978z"/><path id="5f9sc" d="M870.436 1852.269a3.888 3.888 0 0 1-2.78-1.168c-12.042-12.288-11.844-32.01.444-44.052 12.289-12.043 32.01-11.844 44.052.444a3.894 3.894 0 0 1-5.56 5.452c-9.033-9.216-23.824-9.368-33.04-.336-9.216 9.033-9.368 23.825-.335 33.041a3.893 3.893 0 0 1-2.78 6.619z"/><path id="5f9sd" d="M1049.54 1852.269a3.895 3.895 0 0 1-2.78-6.62c9.032-9.215 8.88-24.007-.335-33.04-9.216-9.033-24.008-8.88-33.041.335a3.893 3.893 0 0 1-5.56-5.45c12.042-12.289 31.763-12.488 44.051-.445 12.289 12.043 12.487 31.764.444 44.052a3.896 3.896 0 0 1-2.78 1.168z"/><path id="5f9se" d="M905.478 1821.51c0-30.105 24.405-54.51 54.51-54.51 30.105 0 54.51 24.405 54.51 54.51 0 30.105-24.405 54.51-54.51 54.51-30.105 0-54.51-24.405-54.51-54.51z"/><path id="5f9sf" d="M996.494 1781.11c20.18 22.291 18.47 56.726-3.82 76.906-20.74 18.778-52.34 18.778-73.086 0 20.122 22.352 54.553 24.16 76.906 4.037 22.352-20.122 24.16-54.553 4.037-76.905a54.956 54.956 0 0 0-4.037-4.038z"/><path id="5f9sg" d="M889.904 1833.19a3.881 3.881 0 0 1-2.753-1.14l-11.68-11.681a3.894 3.894 0 1 1 5.506-5.506l11.68 11.681a3.896 3.896 0 0 1 0 5.506 3.892 3.892 0 0 1-2.753 1.14z"/><path id="5f9sh" d="M1045.646 1833.19h-15.575a3.895 3.895 0 0 1-3.893-3.893 3.895 3.895 0 0 1 3.893-3.894h15.575a3.895 3.895 0 0 1 3.894 3.894 3.895 3.895 0 0 1-3.894 3.894z"/><path id="5f9si" d="M971.668 1813.723a3.895 3.895 0 0 1-2.752-6.646l7.787-7.788a3.894 3.894 0 1 1 5.506 5.506l-7.788 7.787a3.909 3.909 0 0 1-2.753 1.14z"/><path id="5f9sj" d="M987.52 1852.935a3.895 3.895 0 0 1-2.753-6.647c13.685-13.685 13.685-35.871 0-49.557-13.686-13.685-35.872-13.685-49.557 0-13.686 13.686-13.686 35.872 0 49.557a3.897 3.897 0 0 1 .097 5.506 3.897 3.897 0 0 1-5.505.098c-.032-.032-.067-.063-.098-.098-16.727-16.727-16.727-43.841 0-60.568 16.727-16.727 43.841-16.727 60.568 0 16.727 16.727 16.727 43.841 0 60.568a3.868 3.868 0 0 1-2.753 1.14z"/><path id="5f9sk" d="M944.413 1821.51c0-8.602 6.973-15.574 15.575-15.574 8.601 0 15.574 6.972 15.574 15.574 0 8.601-6.973 15.574-15.574 15.574-8.602 0-15.575-6.973-15.575-15.574z"/><path id="5f9sl" d="M968.87 1808.735c4.917 7.04 3.196 16.734-3.844 21.652a15.55 15.55 0 0 1-17.813 0c4.867 7.09 14.562 8.897 21.652 4.03 7.09-4.867 8.897-14.562 4.03-21.652a15.555 15.555 0 0 0-4.026-4.03z"/><path id="5f9sm" d="M1056.396 1795.56c16.528 16.866 16.255 43.938-.612 60.466-15.352 15.045-39.484 16.353-56.374 3.06h-.02c16.396 17.019 43.483 17.525 60.506 1.13 17.023-16.396 17.525-43.484 1.13-60.506a43.648 43.648 0 0 0-4.63-4.15z"/><path id="5f9sn" d="M886.01 1868.233a42.619 42.619 0 0 1-28.244-10.692c15.52 17.743 42.483 19.546 60.226 4.026.9-.787 1.764-1.608 2.593-2.468a53.21 53.21 0 0 1-3.59-4.186 42.708 42.708 0 0 1-30.985 13.32z"/></defs><g><g transform="translate(-847 -1767)"><g><g><use fill="#23aec8" xlink:href="#5f9sa"/></g><g><use fill="#23aec8" xlink:href="#5f9sb"/></g></g><g><g><use fill="#2b2733" xlink:href="#5f9sc"/></g><g><use fill="#2b2733" xlink:href="#5f9sd"/></g></g><g><use fill="#ffbc05" xlink:href="#5f9se"/></g><g><use fill="#e38100" xlink:href="#5f9sf"/></g><g><g><use fill="#d12136" xlink:href="#5f9sg"/></g><g><use fill="#d12136" xlink:href="#5f9sh"/></g><g><use fill="#d12136" xlink:href="#5f9si"/></g></g><g><g><use fill="#2b2733" xlink:href="#5f9sj"/></g><g><use fill="#2b2733" xlink:href="#5f9sk"/></g></g><g><use fill="#1a1721" xlink:href="#5f9sl"/></g><g><g><use fill="#1967a3" xlink:href="#5f9sm"/></g><g><use fill="#1967a3" xlink:href="#5f9sn"/></g></g></g></g></svg>