<svg xmlns="http://www.w3.org/2000/svg" xmlns:xlink="http://www.w3.org/1999/xlink" width="220" height="205" viewBox="0 0 220 205"><defs><path id="o7yoa" d="M1070 2622.368v180.322H850.69v-180.322l109.655-9.747z"/><path id="o7yob" d="M1070 2598v24.368h-24.368l-14.62-12.184 14.62-12.184z"/><path id="o7yoc" d="M850.69 2622.368V2598h194.942v24.368z"/><path id="o7yod" d="M1040.758 2701.563H879.931a3.655 3.655 0 1 1 0-7.31h160.828a3.655 3.655 0 1 1 0 7.31z"/><path id="o7yoe" d="M950.597 2721.058h-70.666a3.655 3.655 0 1 1 0-7.31h70.667a3.655 3.655 0 1 1 0 7.31z"/><path id="o7yof" d="M950.597 2740.552h-70.666a3.655 3.655 0 1 1 0-7.31h70.667a3.655 3.655 0 1 1 0 7.31z"/><path id="o7yog" d="M950.597 2760.046h-70.666a3.655 3.655 0 1 1 0-7.31h70.667a3.655 3.655 0 1 1 0 7.31z"/><path id="o7yoh" d="M970.092 2775.885v-58.483h70.667v58.483z"/><path id="o7yoi" d="M950.597 2779.54h-70.666a3.655 3.655 0 1 1 0-7.31h70.667a3.655 3.655 0 1 1 0 7.31z"/><path id="o7yoj" d="M1019.901 2682.069c-6.582 0-11.712-2.88-13.391-7.518a3.655 3.655 0 1 1 6.874-2.487c.583 1.612 3.202 2.695 6.516 2.695 2.479 0 6.672-.77 6.672-3.658 0-1.978-.904-2.662-7.264-3.703-2.827-.462-5.749-.94-8.21-2.235-3.39-1.783-5.18-4.784-5.18-8.677 0-6.458 5.75-10.969 13.982-10.969 6.579 0 11.71 2.88 13.39 7.513a3.655 3.655 0 0 1-6.872 2.492c-.585-1.611-3.203-2.694-6.517-2.694-2.479 0-6.672.77-6.672 3.658 0 1.975.903 2.658 7.26 3.697 2.827.463 5.75.94 8.213 2.237 3.39 1.783 5.182 4.785 5.182 8.68 0 6.458-5.75 10.969-13.983 10.969z"/><path id="o7yok" d="M987.543 2682.069a3.656 3.656 0 0 1-3.26-2.003l-4.148-8.187-4.15 8.187a3.656 3.656 0 0 1-6.804-.754l-7.409-29.242a3.655 3.655 0 1 1 7.086-1.795l5.014 19.788 3-5.922a3.656 3.656 0 0 1 6.522 0l3 5.922 5.014-19.788a3.656 3.656 0 0 1 7.086 1.795l-7.409 29.242a3.655 3.655 0 0 1-3.542 2.757z"/><path id="o7yol" d="M950.695 2682.069H930.04a3.655 3.655 0 0 1-3.655-3.655v-29.242a3.655 3.655 0 0 1 3.655-3.655h20.655a3.655 3.655 0 1 1 0 7.31h-17v21.931h17a3.655 3.655 0 1 1 0 7.31z"/><path id="o7yom" d="M943.81 2667.448h-13.77a3.655 3.655 0 1 1 0-7.31h13.77a3.655 3.655 0 1 1 0 7.31z"/><path id="o7yon" d="M915.42 2682.069a3.656 3.656 0 0 1-2.78-1.282l-18.524-21.702v19.329a3.655 3.655 0 1 1-7.31 0v-29.242a3.656 3.656 0 0 1 6.435-2.373l18.524 21.702v-19.329a3.655 3.655 0 1 1 7.31 0v29.242a3.656 3.656 0 0 1-3.654 3.655z"/></defs><g><g transform="translate(-850 -2598)"><g><use fill="#ece7ea" xlink:href="#o7yoa"/></g><g><use fill="#d90014" xlink:href="#o7yob"/></g><g><use fill="#1b4145" xlink:href="#o7yoc"/></g><g><use fill="#d6ced1" xlink:href="#o7yod"/></g><g><g><use fill="#8b7e7f" xlink:href="#o7yoe"/></g><g><use fill="#8b7e7f" xlink:href="#o7yof"/></g><g><use fill="#8b7e7f" xlink:href="#o7yog"/></g></g><g><use fill="#d90014" xlink:href="#o7yoh"/></g><g><g><use fill="#8b7e7f" xlink:href="#o7yoi"/></g><g><use fill="#8b7e7f" xlink:href="#o7yoj"/></g><g><use fill="#8b7e7f" xlink:href="#o7yok"/></g><g><use fill="#8b7e7f" xlink:href="#o7yol"/></g><g><use fill="#8b7e7f" xlink:href="#o7yom"/></g><g><use fill="#8b7e7f" xlink:href="#o7yon"/></g></g></g></g></svg>