<svg xmlns="http://www.w3.org/2000/svg" xmlns:xlink="http://www.w3.org/1999/xlink" width="32" height="32" viewBox="0 0 32 32"><defs><path id="2f7ua" d="M1153.706 2509.77a8.936 8.936 0 1 1-17.873 0 8.936 8.936 0 0 1 17.873 0z"/><path id="2f7ub" d="M1144.77 2525.54a.526.526 0 0 1-.526-.527v-4.205a.526.526 0 0 1 1.051 0v4.205c0 .29-.235.526-.525.526z"/><path id="2f7uc" d="M1144.77 2499.257a.526.526 0 0 1-.526-.526v-4.205a.526.526 0 0 1 1.051 0v4.205c0 .29-.235.526-.525.526z"/><path id="2f7ud" d="M1136.885 2501.885l-3.154-3.154"/><path id="2f7ue" d="M1136.885 2502.41a.526.526 0 0 1-.372-.154l-3.154-3.153a.526.526 0 0 1 .744-.744l3.153 3.154a.526.526 0 0 1-.371.897z"/><path id="2f7uf" d="M1155.808 2520.808l-3.154-3.154"/><path id="2f7ug" d="M1155.808 2521.334a.526.526 0 0 1-.371-.154l-3.154-3.154a.526.526 0 0 1 .743-.743l3.154 3.154a.526.526 0 0 1-.372.897z"/><path id="2f7uh" d="M1152.654 2501.885l3.154-3.154"/><path id="2f7ui" d="M1152.654 2502.41a.526.526 0 0 1-.371-.897l3.154-3.154a.526.526 0 0 1 .743.744l-3.154 3.153a.526.526 0 0 1-.372.154z"/><path id="2f7uj" d="M1160.013 2510.295h-4.205a.526.526 0 0 1 0-1.051h4.205a.526.526 0 1 1 0 1.051z"/><path id="2f7uk" d="M1133.73 2510.295h-4.204a.526.526 0 0 1 0-1.051h4.205a.526.526 0 0 1 0 1.051z"/><path id="2f7ul" d="M1133.73 2520.808l3.155-3.154"/><path id="2f7um" d="M1133.73 2521.334a.526.526 0 0 1-.37-.897l3.153-3.154a.526.526 0 0 1 .743.743l-3.153 3.154a.526.526 0 0 1-.372.154z"/><path id="2f7un" d="M1144.77 2501.36a8.41 8.41 0 1 1-8.41 8.41 8.42 8.42 0 0 1 8.41-8.41zm0 17.871a9.462 9.462 0 1 0-9.462-9.461 9.473 9.473 0 0 0 9.462 9.461z"/><path id="2f7uo" d="M1144.77 2525.54c.29 0 .525-.236.525-.527v-4.205a.526.526 0 0 0-1.051 0v4.205c0 .29.235.526.526.526z"/><path id="2f7up" d="M1144.77 2499.257c.29 0 .525-.236.525-.526v-4.205a.526.526 0 0 0-1.051 0v4.205c0 .29.235.526.526.526z"/><path id="2f7uq" d="M1136.513 2502.256a.526.526 0 0 0 .743-.743l-3.154-3.154a.526.526 0 0 0-.743.744z"/><path id="2f7ur" d="M1153.026 2517.283a.526.526 0 0 0-.743.743l3.154 3.154a.526.526 0 0 0 .743-.743z"/><path id="2f7us" d="M1152.654 2502.41c.14 0 .273-.055.372-.154l3.154-3.153a.526.526 0 0 0-.743-.744l-3.154 3.154a.526.526 0 0 0 .371.897z"/><path id="2f7ut" d="M1160.013 2509.244h-4.205a.526.526 0 0 0 0 1.051h4.205a.526.526 0 0 0 0-1.051z"/><path id="2f7uu" d="M1129.526 2510.295h4.205a.526.526 0 0 0 0-1.051h-4.205a.526.526 0 0 0 0 1.051z"/><path id="2f7uv" d="M1134.103 2521.18l3.153-3.154a.526.526 0 0 0-.743-.743l-3.154 3.154a.526.526 0 1 0 .744.743z"/></defs><g><g transform="translate(-1129 -2494)"><g><g><use fill="#ffc400" xlink:href="#2f7ua"/></g><g><use fill="#fdd020" xlink:href="#2f7ub"/></g><g><use fill="#fdd020" xlink:href="#2f7uc"/></g><g><use fill="#fdd020" xlink:href="#2f7ud"/></g><g><use fill="#fdd020" xlink:href="#2f7ue"/></g><g><use fill="#fdd020" xlink:href="#2f7uf"/></g><g><use fill="#fdd020" xlink:href="#2f7ug"/></g><g><use fill="#fdd020" xlink:href="#2f7uh"/></g><g><use fill="#fdd020" xlink:href="#2f7ui"/></g><g><use fill="#fdd020" xlink:href="#2f7uj"/></g><g><use fill="#fdd020" xlink:href="#2f7uk"/></g><g><use fill="#fdd020" xlink:href="#2f7ul"/></g><g><use fill="#fdd020" xlink:href="#2f7um"/></g></g><g><use fill="#15180c" xlink:href="#2f7un"/></g><g><use fill="#15180c" xlink:href="#2f7uo"/></g><g><use fill="#15180c" xlink:href="#2f7up"/></g><g><use fill="#15180c" xlink:href="#2f7uq"/></g><g><use fill="#15180c" xlink:href="#2f7ur"/></g><g><use fill="#15180c" xlink:href="#2f7us"/></g><g><use fill="#15180c" xlink:href="#2f7ut"/></g><g><use fill="#15180c" xlink:href="#2f7uu"/></g><g><use fill="#15180c" xlink:href="#2f7uv"/></g></g></g></svg>