<svg xmlns="http://www.w3.org/2000/svg" xmlns:xlink="http://www.w3.org/1999/xlink" width="27" height="33" viewBox="0 0 27 33"><defs><path id="yxvma" d="M539.69 1309.79a.63.63 0 0 0-.064 1.26.63.63 0 0 0 .695-.628.63.63 0 0 0-.632-.632z"/><path id="yxvmb" d="M551.697 1321.999c0 7.548-4.817 14.086-12.008 16.327a17.088 17.088 0 0 1-12.007-16.327v-9.727a4.434 4.434 0 0 0 3.747-3.746h16.52a4.434 4.434 0 0 0 3.748 3.746zm.632-10.945a3.163 3.163 0 0 1-3.16-3.16.632.632 0 0 0-.632-.632h-17.695a.632.632 0 0 0-.632.632 3.163 3.163 0 0 1-3.16 3.16.632.632 0 0 0-.632.631V1322c0 8.037 5.239 15.238 13.09 17.593a.634.634 0 0 0 .363 0c7.68-2.304 13.09-9.38 13.09-17.593v-10.314a.632.632 0 0 0-.632-.631z"/><path id="yxvmc" d="M550.054 1313.107a5.693 5.693 0 0 1-2.938-2.939.632.632 0 0 0-.58-.378h-4.32a.632.632 0 0 0 0 1.264h3.921a6.947 6.947 0 0 0 3.032 3.031V1322c0 6.184-3.713 11.52-9.48 13.657-5.766-2.137-9.48-7.473-9.48-13.657v-7.914a6.948 6.948 0 0 0 3.033-3.031h3.92a.632.632 0 0 0 0-1.264h-4.32a.632.632 0 0 0-.579.378 5.693 5.693 0 0 1-2.939 2.939.632.632 0 0 0-.378.579v8.313c0 6.775 4.19 12.68 10.532 14.924a.632.632 0 0 0 .422 0c6.337-2.242 10.533-8.143 10.533-14.924v-8.313a.632.632 0 0 0-.379-.58z"/><path id="yxvmd" d="M539.69 1326.6a4.429 4.429 0 0 1-4.424-4.424 4.429 4.429 0 0 1 4.423-4.424 4.429 4.429 0 0 1 4.424 4.424 4.429 4.429 0 0 1-4.424 4.424zm0-10.112a5.694 5.694 0 0 0-5.688 5.688 5.694 5.694 0 0 0 5.687 5.688 5.694 5.694 0 0 0 5.688-5.688 5.694 5.694 0 0 0-5.688-5.688z"/><path id="yxvme" d="M542.664 1320.465a.632.632 0 0 0-.894 0l-2.713 2.713-.817-.817a.632.632 0 0 0-.894.894l1.264 1.264a.63.63 0 0 0 .894 0l3.16-3.16a.632.632 0 0 0 0-.894z"/></defs><g><g transform="translate(-526 -1307)"><g><g><g><use fill="#fff" xlink:href="#yxvma"/></g></g></g><g><g><g><use fill="#fff" xlink:href="#yxvmb"/></g></g></g><g><g><g><use fill="#fff" xlink:href="#yxvmc"/></g></g></g><g><g><g><use fill="#fff" xlink:href="#yxvmd"/></g></g></g><g><g><g><use fill="#fff" xlink:href="#yxvme"/></g></g></g></g></g></svg>