<svg xmlns="http://www.w3.org/2000/svg" xmlns:xlink="http://www.w3.org/1999/xlink" width="30" height="22" viewBox="0 0 30 22"><defs><path id="qa7xa" d="M1364.962 2505.484a8.479 8.479 0 0 0-8.478 8.478v.998h16.957v-.998a8.479 8.479 0 0 0-8.479-8.478z"/><path id="qa7xb" d="M1372.443 2518.95h-14.962a.499.499 0 1 1 0-.998h14.962a.499.499 0 0 1 0 .997z"/><path id="qa7xc" d="M1373.44 2516.954h-16.956a.499.499 0 0 1 0-.997h16.957a.499.499 0 0 1 0 .997z"/><path id="qa7xd" d="M1371.446 2520.944h-12.469a.499.499 0 0 1 0-.997h12.469a.499.499 0 0 1 0 .997z"/><path id="qa7xe" d="M1364.962 2503.987a.499.499 0 0 1-.499-.498v-3.99a.499.499 0 0 1 .998 0v3.99a.499.499 0 0 1-.499.498z"/><path id="qa7xf" d="M1357.481 2506.98a.499.499 0 0 1-.353-.146l-2.992-2.993a.499.499 0 0 1 .705-.705l2.993 2.992a.5.5 0 0 1-.353.852z"/><path id="qa7xg" d="M1372.443 2506.98a.499.499 0 0 1-.353-.852l2.993-2.992a.499.499 0 0 1 .705.705l-2.992 2.993a.499.499 0 0 1-.353.146z"/><path id="qa7xh" d="M1379.425 2514.96h-3.99a.499.499 0 0 1 0-.998h3.99a.499.499 0 0 1 0 .997z"/><path id="qa7xi" d="M1354.489 2514.96h-3.99a.499.499 0 0 1 0-.998h3.99a.499.499 0 0 1 0 .997z"/><path id="qa7xj" d="M1367.31 2511.614a.499.499 0 0 0-.706 0l-1.143 1.144v-2.786a.499.499 0 0 0-.998 0v2.786l-1.143-1.144a.499.499 0 0 0-.706.706l1.995 1.995a.499.499 0 0 0 .707 0l1.995-1.995a.499.499 0 0 0-.001-.706z"/><path id="qa7xk" d="M1372.443 2517.952h-14.962a.499.499 0 0 0 0 .997h14.962a.499.499 0 1 0 0-.997z"/><path id="qa7xl" d="M1373.44 2515.957h-16.956a.499.499 0 0 0 0 .997h16.957a.499.499 0 0 0 0-.997z"/><path id="qa7xm" d="M1371.446 2519.947h-12.469a.499.499 0 0 0 0 .997h12.469a.499.499 0 0 0 0-.997z"/><path id="qa7xn" d="M1365.46 2503.489v-3.99a.499.499 0 0 0-.997 0v3.99a.499.499 0 0 0 .998 0z"/><path id="qa7xo" d="M1357.481 2506.98a.499.499 0 0 0 .353-.852l-2.993-2.992a.499.499 0 0 0-.705.705l2.992 2.993c.094.093.22.146.353.146z"/><path id="qa7xp" d="M1372.796 2506.834l2.992-2.993a.499.499 0 0 0-.705-.705l-2.993 2.992a.499.499 0 1 0 .706.706z"/><path id="qa7xq" d="M1379.425 2513.962h-3.99a.499.499 0 0 0 0 .997h3.99a.499.499 0 0 0 0-.997z"/><path id="qa7xr" d="M1354.489 2513.962h-3.99a.499.499 0 0 0 0 .997h3.99a.499.499 0 0 0 0-.997z"/><path id="qa7xs" d="M1364.962 2504.985a8.988 8.988 0 0 0-8.977 8.977v.499a.499.499 0 0 0 .997 0v-.499a7.98 7.98 0 0 1 15.96 0v.499a.499.499 0 0 0 .997 0v-.499a8.988 8.988 0 0 0-8.977-8.977z"/><path id="qa7xt" d="M1364.962 2509.473a.499.499 0 0 0-.499.5v2.785l-1.143-1.144a.499.499 0 0 0-.706.706l1.995 1.995a.499.499 0 0 0 .707 0l1.995-1.995a.499.499 0 0 0-.706-.706l-1.144 1.144v-2.786a.499.499 0 0 0-.499-.499z"/></defs><g><g transform="translate(-1350 -2499)"><g><use fill="#ffc400" xlink:href="#qa7xa"/></g><g><use fill="#fce666" xlink:href="#qa7xb"/></g><g><use fill="#fce666" xlink:href="#qa7xc"/></g><g><use fill="#fce666" xlink:href="#qa7xd"/></g><g><g><use fill="#fdd020" xlink:href="#qa7xe"/></g><g><use fill="#fdd020" xlink:href="#qa7xf"/></g><g><use fill="#fdd020" xlink:href="#qa7xg"/></g><g><use fill="#fdd020" xlink:href="#qa7xh"/></g><g><use fill="#fdd020" xlink:href="#qa7xi"/></g></g><g><use fill="#f69c7f" xlink:href="#qa7xj"/></g><g><use fill="#15180c" xlink:href="#qa7xk"/></g><g><use fill="#15180c" xlink:href="#qa7xl"/></g><g><use fill="#15180c" xlink:href="#qa7xm"/></g><g><use fill="#15180c" xlink:href="#qa7xn"/></g><g><use fill="#15180c" xlink:href="#qa7xo"/></g><g><use fill="#15180c" xlink:href="#qa7xp"/></g><g><use fill="#15180c" xlink:href="#qa7xq"/></g><g><use fill="#15180c" xlink:href="#qa7xr"/></g><g><use fill="#15180c" xlink:href="#qa7xs"/></g><g><use fill="#15180c" xlink:href="#qa7xt"/></g></g></g></svg>