<svg xmlns="http://www.w3.org/2000/svg" xmlns:xlink="http://www.w3.org/1999/xlink" width="31" height="23" viewBox="0 0 31 23"><defs><path id="yu42a" d="M927.835 2505.575a8.598 8.598 0 0 0-8.598 8.598v1.012h17.196v-1.012a8.598 8.598 0 0 0-8.598-8.598z"/><path id="yu42b" d="M935.422 2519.23h-15.173a.506.506 0 0 1 0-1.01h15.173a.506.506 0 0 1 0 1.01z"/><path id="yu42c" d="M936.433 2517.208h-17.196a.506.506 0 0 1 0-1.012h17.196a.506.506 0 0 1 0 1.012z"/><path id="yu42d" d="M934.41 2521.254h-12.644a.506.506 0 0 1 0-1.012h12.644a.506.506 0 0 1 0 1.012z"/><path id="yu42e" d="M930.216 2511.792l-2.023-2.023a.506.506 0 0 0-.716 0l-2.023 2.023a.506.506 0 0 0 .715.716l1.16-1.16v2.825a.506.506 0 0 0 1.012 0v-2.825l1.16 1.16a.506.506 0 0 0 .715-.716z"/><path id="yu42f" d="M927.835 2504.058a.506.506 0 0 1-.506-.506v-4.046a.506.506 0 0 1 1.012 0v4.046c0 .28-.226.506-.506.506z"/><path id="yu42g" d="M920.249 2507.092a.506.506 0 0 1-.358-.148l-3.035-3.034a.506.506 0 0 1 .716-.716l3.034 3.035a.506.506 0 0 1-.357.863z"/><path id="yu42h" d="M935.422 2507.092a.506.506 0 0 1-.358-.863l3.035-3.035a.506.506 0 0 1 .715.716l-3.035 3.034a.506.506 0 0 1-.357.148z"/><path id="yu42i" d="M942.503 2515.185h-4.047a.506.506 0 0 1 0-1.012h4.047a.506.506 0 0 1 0 1.012z"/><path id="yu42j" d="M917.214 2515.185h-4.046a.506.506 0 0 1 0-1.012h4.046a.506.506 0 0 1 0 1.012z"/><path id="yu42k" d="M927.835 2505.07a9.114 9.114 0 0 0-9.104 9.103v.506a.506.506 0 0 0 1.012 0v-.506a8.092 8.092 0 0 1 16.185 0v.506a.506.506 0 0 0 1.011 0v-.506a9.114 9.114 0 0 0-9.104-9.104z"/><path id="yu42l" d="M935.422 2518.22h-15.173a.506.506 0 0 0 0 1.01h15.173a.506.506 0 0 0 0-1.01z"/><path id="yu42m" d="M936.433 2516.196h-17.196a.506.506 0 0 0 0 1.012h17.196a.506.506 0 0 0 0-1.012z"/><path id="yu42n" d="M934.41 2520.242h-12.644a.506.506 0 0 0 0 1.012h12.644a.506.506 0 0 0 0-1.012z"/><path id="yu42o" d="M927.835 2514.679c.28 0 .506-.227.506-.506v-2.825l1.16 1.16a.506.506 0 0 0 .715-.716l-2.023-2.023a.506.506 0 0 0-.716 0l-2.023 2.023a.506.506 0 0 0 .715.716l1.16-1.16v2.825c0 .28.227.506.506.506z"/><path id="yu42p" d="M927.33 2499.506v4.046a.506.506 0 0 0 1.011 0v-4.046a.506.506 0 0 0-1.012 0z"/><path id="yu42q" d="M916.856 2503.194a.506.506 0 0 0 0 .716l3.035 3.034a.506.506 0 0 0 .715-.715l-3.034-3.035a.506.506 0 0 0-.716 0z"/><path id="yu42r" d="M935.422 2507.092a.506.506 0 0 0 .357-.148l3.035-3.034a.506.506 0 0 0-.715-.716l-3.035 3.035a.506.506 0 0 0 .358.863z"/><path id="yu42s" d="M942.503 2514.173h-4.047a.506.506 0 0 0 0 1.012h4.047a.506.506 0 0 0 0-1.012z"/><path id="yu42t" d="M917.214 2514.173h-4.046a.506.506 0 0 0 0 1.012h4.046a.506.506 0 0 0 0-1.012z"/></defs><g><g transform="translate(-912 -2499)"><g><use fill="#ffc400" xlink:href="#yu42a"/></g><g><use fill="#fce666" xlink:href="#yu42b"/></g><g><use fill="#fce666" xlink:href="#yu42c"/></g><g><use fill="#fce666" xlink:href="#yu42d"/></g><g><use fill="#f69c7f" xlink:href="#yu42e"/></g><g><g><use fill="#fdd020" xlink:href="#yu42f"/></g><g><use fill="#fdd020" xlink:href="#yu42g"/></g><g><use fill="#fdd020" xlink:href="#yu42h"/></g><g><use fill="#fdd020" xlink:href="#yu42i"/></g><g><use fill="#fdd020" xlink:href="#yu42j"/></g></g><g><use fill="#15180c" xlink:href="#yu42k"/></g><g><use fill="#15180c" xlink:href="#yu42l"/></g><g><use fill="#15180c" xlink:href="#yu42m"/></g><g><use fill="#15180c" xlink:href="#yu42n"/></g><g><use fill="#15180c" xlink:href="#yu42o"/></g><g><use fill="#15180c" xlink:href="#yu42p"/></g><g><use fill="#15180c" xlink:href="#yu42q"/></g><g><use fill="#15180c" xlink:href="#yu42r"/></g><g><use fill="#15180c" xlink:href="#yu42s"/></g><g><use fill="#15180c" xlink:href="#yu42t"/></g></g></g></svg>