<svg xmlns="http://www.w3.org/2000/svg" width="14" height="12.133" viewBox="0 0 14 12.133">
  <path id="Path_1784" data-name="Path 1784" d="M13.657,36.886a1.123,1.123,0,0,0-.824-.343H1.167a1.124,1.124,0,0,0-.824.343A1.123,1.123,0,0,0,0,37.71v7.933a1.124,1.124,0,0,0,.343.824,1.124,1.124,0,0,0,.824.343H5.133a1.525,1.525,0,0,1-.117.569,5.159,5.159,0,0,1-.233.51.806.806,0,0,0-.117.321.474.474,0,0,0,.467.467H8.867a.474.474,0,0,0,.467-.467.834.834,0,0,0-.117-.317,5.35,5.35,0,0,1-.233-.518,1.537,1.537,0,0,1-.117-.565h3.967A1.17,1.17,0,0,0,14,45.643V37.71A1.123,1.123,0,0,0,13.657,36.886Zm-.591,6.891a.236.236,0,0,1-.233.233H1.167a.236.236,0,0,1-.233-.233V37.71a.237.237,0,0,1,.233-.233H12.833a.237.237,0,0,1,.233.233v6.067Z" transform="translate(0 -36.543)" fill="#2b539d"/>
</svg>
