<svg xmlns="http://www.w3.org/2000/svg" xmlns:xlink="http://www.w3.org/1999/xlink" width="67" height="74" viewBox="0 0 67 74"><defs><path id="jirta" d="M378.448 1648.725c20.115-7.525 33.446-26.745 33.446-48.222v-13.016c-6.896 0-12.487-5.59-12.487-12.487h-41.92c0 6.896-5.59 12.487-12.486 12.487v13.016c0 21.477 13.331 40.697 33.447 48.222z"/><path id="jirtb" d="M378.447 1648.725c20.116-7.525 33.447-26.745 33.447-48.222v-13.016c-6.897 0-12.487-5.59-12.487-12.487h-20.96v73.725z"/><path id="jirtc" d="M373.786 1624.862l-11.087-11.088 6.109-6.11 4.978 4.98 14.298-14.298 6.109 6.11z"/><path id="jirtd" d="M378.447 1620.202v-12.218l9.638-9.638 6.11 6.11z"/></defs><g><g transform="translate(-345 -1575)"><use fill="#6ccb93" xlink:href="#jirta"/></g><g transform="translate(-345 -1575)"><use fill="#57b182" xlink:href="#jirtb"/></g><g transform="translate(-345 -1575)"><use fill="#f1f1f2" xlink:href="#jirtc"/></g><g transform="translate(-345 -1575)"><use fill="#e6e6e6" xlink:href="#jirtd"/></g></g></svg>