<svg xmlns="http://www.w3.org/2000/svg" xmlns:xlink="http://www.w3.org/1999/xlink" width="71" height="94" viewBox="0 0 71 94"><defs><path id="rnqza" d="M568.852 1125.34c0-9.146 7.44-16.586 16.585-16.586.154 0 .307.002.46.007a19.001 19.001 0 0 1 .706.035l.174.012.306.027.104.011a16.485 16.485 0 0 1 3.712.833l.265.094.112.043a16.273 16.273 0 0 1 1.721.765l.09.046.006.003a20.616 20.616 0 0 1 .416.226l.078.044.158.09.153.09.172.104.024.015c.099.06.197.121.293.183.075.048.148.097.222.146l.046.03c.087.058.172.118.257.177l.103.071.06.044a16.378 16.378 0 0 1 .8.61l.173.143c.079.066.158.131.235.199l.014.012a16.711 16.711 0 0 1 3.287 3.877l.046.076.14.234.083.145a16.533 16.533 0 0 1 .43.806l.05.1a16.646 16.646 0 0 1 .177.371 16.538 16.538 0 0 1 1.359 4.665l.001.008c.02.139.036.277.051.417l.005.036c.014.13.026.259.037.388l.005.063c.01.12.018.242.025.363l.006.087c.006.117.01.235.014.353l.004.093c.004.147.006.295.006.443v1.775c-3.615-.788-6.777-2.966-8.83-6.129a1.377 1.377 0 0 0-2.176-.172 20.102 20.102 0 0 1-14.898 6.63c-2.508 0-4.948-.458-7.267-1.362v-.742zm-.212 15.185c.728-.22 1.14-.989.92-1.717a16.6 16.6 0 0 1-.708-4.809v-4.99a22.652 22.652 0 0 0 7.267 1.187 22.86 22.86 0 0 0 15.764-6.327 16.787 16.787 0 0 0 10.14 6.048v4.082c0 9.145-7.441 16.585-16.586 16.585a16.608 16.608 0 0 1-13.624-7.125 1.377 1.377 0 1 0-2.261 1.573 19.364 19.364 0 0 0 15.885 8.306c10.664 0 19.339-8.676 19.339-19.34v-8.659c0-.173-.002-.345-.007-.516 0-.037-.003-.074-.004-.112-.005-.136-.01-.272-.017-.407l-.006-.098a19.976 19.976 0 0 0-.029-.424c-.001-.024-.004-.047-.006-.071a20.07 20.07 0 0 0-.043-.451l-.005-.044c-.018-.16-.037-.32-.058-.48l-.003-.016a19.182 19.182 0 0 0-1.564-5.4l-.052-.11-.15-.318-.102-.205-.108-.212a20.44 20.44 0 0 0-.141-.267l-.074-.137a20.44 20.44 0 0 0-.179-.319l-.038-.067a19.368 19.368 0 0 0-4.254-5.095l-.025-.02c-.052-.044-.106-.087-.159-.13l-.055-.046c-.078-.064-.155-.13-.234-.192l-.19-.15-.02-.015c-.065-.05-.13-.097-.195-.146a16.58 16.58 0 0 0-.097-.073c-.043-.032-.086-.066-.13-.097l-.25-.18c-.085-.06-.172-.119-.257-.177l-.102-.07-.035-.024c-.097-.065-.194-.13-.294-.195-.119-.076-.24-.15-.36-.224l-.013-.008c-.052-.033-.105-.064-.158-.096-.057-.035-.114-.07-.174-.105l-.089-.05-.216-.123-.024-.013-.004-.002a18.209 18.209 0 0 0-.289-.16l-.097-.053-.137-.07a19.288 19.288 0 0 0-1.109-.532l-.023-.01c-.15-.067-.302-.131-.455-.193l-.107-.044c-.12-.048-.24-.095-.36-.14-.057-.022-.114-.045-.172-.066-.075-.028-.151-.054-.227-.081a18.969 18.969 0 0 0-4.402-.997l-.12-.013a19.164 19.164 0 0 0-.357-.031l-.204-.015-.3-.02-.295-.012-.228-.009a18.575 18.575 0 0 0-.536-.008c-10.664 0-19.34 8.676-19.34 19.34v8.66c0 1.908.279 3.794.826 5.606.22.727.989 1.139 1.717.919z"/><path id="rnqzb" d="M585.438 1146.62c2.636 0 5.14-1.38 6.698-3.691a1.377 1.377 0 0 0-2.284-1.54c-1.06 1.574-2.67 2.477-4.414 2.477-1.745 0-3.355-.903-4.418-2.477a1.377 1.377 0 1 0-2.282 1.54c1.56 2.311 4.065 3.69 6.7 3.69z"/><path id="rnqzc" d="M564.754 1193.229zm0-18.001c0-7.918 6.44-14.36 14.358-14.36h2.606l-4.676 15.89c-.14.477-.012.994.336 1.35l5.168 5.29-3.83 9.83h-13.962zm21.531-14.36l3.776 12.837h-2.796c-.567 0-1.077.348-1.283.877l-2.338 6-3.732-3.821 4.677-15.892h1.696zm46.404 37.255l-9.174-23.541a1.377 1.377 0 0 0-2.566 1l8.443 21.664h-49.287l.815-2.092.024-.06 4.474-11.48.015-.039 2.774-7.117h10.895a1.377 1.377 0 0 0 0-2.753h-6.17l-3.776-12.836h2.606c3.993 0 7.84 1.683 10.551 4.619a1.377 1.377 0 0 0 2.023-1.869 17.17 17.17 0 0 0-12.574-5.504h-12.65c-9.436 0-17.113 7.677-17.113 17.113v19.378c0 .76.617 1.377 1.377 1.377h14.266l-.834 2.14a1.378 1.378 0 0 0 1.283 1.877h53.315a1.377 1.377 0 0 0 1.283-1.877z"/><path id="rnqzd" d="M587.18 1189.288c0 .76.616 1.376 1.377 1.376h32.383a1.377 1.377 0 0 0 0-2.753h-32.383c-.76 0-1.377.616-1.377 1.377z"/><path id="rnqze" d="M607.995 1182.984a.432.432 0 0 1-.283-.326l-1.105-5.243 6.031 2.195-4.216 3.306c-.17.132-.34.1-.427.068zm-4.545-8.166c-.012.035-.02.07-.03.106-.007.024-.015.049-.02.074-.008.038-.012.076-.016.115-.003.023-.007.046-.009.07a1.38 1.38 0 0 0 0 .13v.057c.005.062.013.124.026.187l1.617 7.669a3.18 3.18 0 0 0 2.036 2.346 3.182 3.182 0 0 0 3.067-.489l6.168-4.836c.05-.039.097-.081.14-.126l.036-.043c.03-.033.059-.065.085-.1l.036-.058c.022-.033.044-.066.063-.1.012-.022.021-.046.032-.068.016-.034.032-.067.045-.102l.007-.015 10.806-29.688a1.377 1.377 0 1 0-2.588-.942l-10.335 28.394-8.102-2.95 15.252-41.904a.49.49 0 0 1 .628-.293l7.181 2.614a.488.488 0 0 1 .293.628l-3.035 8.339a1.377 1.377 0 1 0 2.588.942l3.035-8.339a3.223 3.223 0 0 0-.108-2.48 3.223 3.223 0 0 0-1.831-1.678l-7.18-2.614a3.223 3.223 0 0 0-2.481.109 3.223 3.223 0 0 0-1.678 1.83l-15.723 43.199-.005.016z"/></defs><g><g transform="translate(-562 -1106)"><g><use fill="#3f73d2" xlink:href="#rnqza"/></g><g><use fill="#3f73d2" xlink:href="#rnqzb"/></g><g><use fill="#3f73d2" xlink:href="#rnqzc"/></g><g><use fill="#3f73d2" xlink:href="#rnqzd"/></g><g><use fill="#3f73d2" xlink:href="#rnqze"/></g></g></g></svg>