<svg xmlns="http://www.w3.org/2000/svg" xmlns:xlink="http://www.w3.org/1999/xlink" width="166" height="202" viewBox="0 0 166 202"><defs><path id="iykta" d="M1261.983 889.657c0-5.05-4.131-9.18-9.18-9.18h-91.804c-5.05 0-9.18 4.131-9.18 9.18v22.951h110.164v-22.95z"/><path id="iyktb" d="M1266.573 912.608c2.295 0 4.59 2.295 4.59 4.59v9.18c0 2.296-2.295 4.59-4.59 4.59h-119.345c-2.295 0-4.59-2.294-4.59-4.59v-9.18c0-2.295 2.295-4.59 4.59-4.59z"/><path id="iyktc" d="M1234.442 871.296c-2.754 0-4.59-1.836-4.59-4.59v-15.148c-2.755.918-5.967 1.378-9.18 1.378h-27.542c-3.213 0-6.426-.46-9.18-1.378v15.148c0 2.754-1.837 4.59-4.59 4.59-2.754 0-4.59 1.836-4.59 4.59v4.59h64.262v-4.59c0-2.754-1.836-4.59-4.59-4.59z"/><path id="iyktd" d="M1261.983 912.608v-22.95c0-5.05-4.131-9.181-9.18-9.181h-22.952v32.131h32.132z"/><path id="iykte" d="M1225.261 908.018h-36.721c-5.05 0-9.18-4.132-9.18-9.18 0-5.05 4.13-9.181 9.18-9.181h36.721c5.05 0 9.18 4.131 9.18 9.18 0 5.05-4.13 9.18-9.18 9.18z"/><path id="iyktf" d="M1211.49 908.018h-9.18l9.18-18.36h9.181z"/><path id="iyktg" d="M1234.442 898.837c0-5.049-4.132-9.18-9.18-9.18l-9.181 18.36h9.18c5.05 0 9.18-4.13 9.18-9.18z"/><path id="iykth" d="M1266.573 912.608h-32.131v4.59c0 5.05-4.132 9.18-9.18 9.18h-73.443c-2.755 0-4.59-1.836-4.59-4.59v-9.18c-2.755 0-4.59 1.836-4.59 4.59v9.18c0 2.296 1.836 4.59 4.59 4.59h119.344c2.295 0 4.59-2.294 4.59-4.59v-9.18c0-2.295-2.295-4.59-4.59-4.59z"/><path id="iykti" d="M1181.655 871.296h13.77c1.377 0 2.295.918 2.295 2.295 0 1.377-.918 2.295-2.295 2.295h-13.77c-1.377 0-2.295-.918-2.295-2.295 0-1.376.918-2.295 2.295-2.295z"/><path id="iyktj" d="M1165.59 829.985h-10.559c-5.967 0-11.934-2.295-16.065-6.886l-7.803-7.803c-4.59-4.131-6.886-9.64-6.886-16.065v-28.919c0-7.803 5.967-13.77 13.77-13.77H1161c2.754 0 4.59 1.836 4.59 4.59 0 2.754-1.837 4.59-4.59 4.59h-22.951c-2.754 0-4.59 1.836-4.59 4.59v28.918c0 3.672 1.377 7.344 4.131 9.64l7.804 7.803c2.754 2.754 5.967 4.131 9.639 4.131h10.557c2.755 0 4.59 1.836 4.59 4.59 0 2.754-1.836 4.59-4.59 4.59z"/><path id="iyktk" d="M1128.867 772.607v18.36c0 1.378-.917 2.296-2.295 2.296-1.377 0-2.295-.918-2.295-2.295v-18.361c0-1.377.918-2.295 2.295-2.295 1.378 0 2.295.918 2.295 2.295z"/><path id="iyktl" d="M1124.277 800.148a2.295 2.295 0 1 1 4.59 0 2.295 2.295 0 0 1-4.59 0z"/><path id="iyktm" d="M1258.77 829.985h-10.558c-2.754 0-4.59-1.837-4.59-4.59 0-2.755 1.836-4.59 4.59-4.59h10.558c3.672 0 7.344-1.378 9.64-4.132l7.803-7.803c2.754-2.754 4.13-5.967 4.13-9.64v-28.918c0-2.754-1.835-4.59-4.59-4.59h-22.95c-2.754 0-4.59-1.836-4.59-4.59 0-2.754 1.836-4.59 4.59-4.59h22.95c7.804 0 13.771 5.967 13.771 13.77v28.919c0 5.967-2.295 11.935-6.885 16.065l-7.804 7.804c-4.13 4.59-9.639 6.885-16.065 6.885z"/><path id="iyktn" d="M1261.983 820.345c-.918 0-1.836.46-3.213.46h-10.558c-2.754 0-4.59 1.836-4.59 4.59 0 2.754 1.836 4.59 4.59 4.59h12.394c.918-3.213 1.377-5.968 1.377-9.64z"/><path id="iykto" d="M1248.212 761.132c0 2.754 1.837 4.59 4.59 4.59h9.18v-9.18h-9.18c-2.753 0-4.59 1.836-4.59 4.59z"/><path id="iyktp" d="M1220.671 852.936h-27.54c-17.903 0-32.132-14.23-32.132-32.132v-73.443h91.803v73.443c0 17.902-14.229 32.132-32.13 32.132z"/><path id="iyktq" d="M1234.442 871.296c-2.295 0-4.59-2.295-4.59-4.59v-15.148c-2.755.918-5.967 1.378-9.18 1.378h-27.542c-3.213 0-6.426-.46-9.18-1.378v4.59c2.754.918 5.967 1.378 9.18 1.378h13.77c5.05 0 9.181 4.13 9.181 9.18 0 2.295 1.836 4.59 4.59 4.59 2.754 0 4.59 1.836 4.59 4.59v4.59h13.77v-4.59c.001-2.754-2.294-4.59-4.59-4.59z"/><path id="iyktr" d="M1289.524 772.607v18.36c0 1.378-.918 2.296-2.295 2.296-1.377 0-2.295-.918-2.295-2.295v-18.361c0-1.377.918-2.295 2.295-2.295 1.377 0 2.295.918 2.295 2.295z"/><path id="iykts" d="M1160.999 747.36v4.591h64.262c5.05 0 9.18 4.131 9.18 9.18v59.673c0 17.902-9.639 32.132-27.54 32.132h13.77c17.902 0 32.132-14.23 32.132-32.132v-73.443z"/><path id="iyktt" d="M1252.803 747.36h-91.804c-5.05 0-9.18-4.13-9.18-9.18 0-5.049 4.13-9.18 9.18-9.18h91.803c5.05 0 9.18 4.131 9.18 9.18 0 5.05-4.13 9.181-9.18 9.181z"/><path id="iyktu" d="M1163.294 729h18.36c1.378 0 2.296.918 2.296 2.295 0 1.377-.918 2.295-2.295 2.295h-18.361c-1.377 0-2.295-.918-2.295-2.295 0-1.377.918-2.295 2.295-2.295z"/><path id="iyktv" d="M1200.015 733.59h-9.18c-1.377 0-2.295-.918-2.295-2.295 0-1.377.918-2.295 2.295-2.295h9.18c1.377 0 2.295.918 2.295 2.295 0 1.377-.918 2.295-2.295 2.295z"/><path id="iyktw" d="M1149.523 761.132h-9.18c-1.377 0-2.295-.918-2.295-2.295 0-1.377.918-2.295 2.295-2.295h9.18c1.378 0 2.296.918 2.296 2.295 0 1.377-.919 2.295-2.296 2.295z"/><path id="iyktx" d="M1278.049 761.132h-9.18c-1.378 0-2.296-.918-2.296-2.295 0-1.377.918-2.295 2.295-2.295h9.18c1.378 0 2.296.918 2.296 2.295 0 1.377-.918 2.295-2.295 2.295z"/><path id="iykty" d="M1252.803 729c0 5.05-4.132 9.18-9.18 9.18h-91.804c0 5.05 4.13 9.181 9.18 9.181h91.345c4.59 0 8.72-3.213 9.639-7.803.918-5.508-3.672-10.558-9.18-10.558z"/><path id="iyktz" d="M1206.9 731.295a2.295 2.295 0 1 1 4.59 0 2.295 2.295 0 0 1-4.59 0z"/><path id="iyktA" d="M1217.458 811.624H1217l-10.098-5.508-10.099 5.508h-1.377c-.459-.46-.459-.918-.459-1.377l1.836-11.935-8.262-8.262v-1.377c0-.46.46-.918.918-.918l11.476-1.836 5.049-10.558c0-.459.459-.459.918-.459s.918.46.918.46l5.049 10.557 11.475 1.836c.46 0 .918.46.918.918 0 .459 0 .918-.459 1.377l-8.262 8.262 1.836 11.935c0 .46 0 .918-.459 1.377h-.459z"/><path id="iyktB" d="M1174.77 797.853c-2.755 0-4.59-1.836-4.59-4.59v-27.541c0-2.754 1.835-4.59 4.59-4.59 2.753 0 4.59 1.836 4.59 4.59v27.541c0 2.754-1.837 4.59-4.59 4.59z"/><path id="iyktC" d="M1170.18 807.034a4.59 4.59 0 1 1 9.18 0 4.59 4.59 0 0 1-9.18 0z"/><path id="iyktD" d="M1160.999 880.477c-5.05 0-9.18 4.13-9.18 9.18v22.951h9.18z"/></defs><g><g transform="translate(-1124 -729)"><g><use fill="#727272" xlink:href="#iykta"/></g><g><use fill="#727272" xlink:href="#iyktb"/></g><g><use fill="#f6b545" xlink:href="#iyktc"/></g><g><use fill="#1a1a1d" xlink:href="#iyktd"/></g><g><use fill="#ffcb5b" xlink:href="#iykte"/></g><g><g><use fill="#f6b545" xlink:href="#iyktf"/></g><g><use fill="#f6b545" xlink:href="#iyktg"/></g></g><g><use fill="#1a1a1d" xlink:href="#iykth"/></g><g><use fill="#ffcb5b" xlink:href="#iykti"/></g><g><use fill="#f6b545" xlink:href="#iyktj"/></g><g><g><use fill="#ffca5d" xlink:href="#iyktk"/></g><g><use fill="#ffca5d" xlink:href="#iyktl"/></g></g><g><use fill="#f6b545" xlink:href="#iyktm"/></g><g><g><use fill="#f19920" xlink:href="#iyktn"/></g><g><use fill="#f19920" xlink:href="#iykto"/></g></g><g><use fill="#ffca5d" xlink:href="#iyktp"/></g><g><g><use fill="#f19920" xlink:href="#iyktq"/></g><g><use fill="#f19920" xlink:href="#iyktr"/></g></g><g><g><use fill="#f6b545" xlink:href="#iykts"/></g><g><use fill="#f6b545" xlink:href="#iyktt"/></g></g><g><g><use fill="#ffca5d" xlink:href="#iyktu"/></g><g><use fill="#ffca5d" xlink:href="#iyktv"/></g><g><use fill="#ffca5d" xlink:href="#iyktw"/></g><g><use fill="#ffca5d" xlink:href="#iyktx"/></g></g><g><use fill="#f19920" xlink:href="#iykty"/></g><g><use fill="#ffca5d" xlink:href="#iyktz"/></g><g><use fill="#d90014" xlink:href="#iyktA"/></g><g><g><use fill="#ffe27a" xlink:href="#iyktB"/></g><g><use fill="#ffe27a" xlink:href="#iyktC"/></g></g><g><use fill="#1a1a1d" xlink:href="#iyktD"/></g></g></g></svg>