<svg xmlns="http://www.w3.org/2000/svg" xmlns:xlink="http://www.w3.org/1999/xlink" width="84" height="84" viewBox="0 0 84 84"><defs><path id="zabqa" d="M593.875 1357.869l-15.15-15.18v60.828H599v-33.324c0-4.627-1.845-9.062-5.125-12.324z"/><path id="zabqb" d="M526.842 1392.433l-11.453-29.733a5.793 5.793 0 0 1 3.324-7.487l54.06-20.823a5.792 5.792 0 0 1 7.486 3.324l11.454 29.732a5.793 5.793 0 0 1-3.324 7.488l-54.058 20.823a5.795 5.795 0 0 1-7.489-3.324z"/><path id="zabqc" d="M584.387 1348.425l-64.819 25.124 4.316 11.204 64.822-25.113z"/><path id="zabqd" d="M515 1371.655v-31.862c0-3.2 2.595-5.793 5.794-5.793h57.93c3.2 0 5.794 2.594 5.794 5.793v31.862c0 3.2-2.594 5.793-5.794 5.793h-57.93a5.794 5.794 0 0 1-5.793-5.793z"/><path id="zabqe" d="M578.724 1334h-6.155l-43.448 43.448h49.603c3.2 0 5.794-2.594 5.794-5.793v-31.862c0-3.2-2.594-5.793-5.794-5.793z"/><path id="zabqf" d="M520.794 1357.172h5.793v2.897h-5.793z"/><path id="zabqg" d="M520.794 1365.862h5.793v2.896h-5.793z"/><path id="zabqh" d="M546.863 1365.862h5.793v2.896h-5.793z"/><path id="zabqi" d="M529.484 1357.172h5.792v2.897h-5.792z"/><path id="zabqj" d="M538.173 1357.172h5.793v2.897h-5.793z"/><path id="zabqk" d="M546.863 1357.172h5.793v2.897h-5.793z"/><path id="zabql" d="M574.38 1339.793h2.896v4.345h-2.896z"/><path id="zabqm" d="M568.586 1339.793h2.897v4.345h-2.897z"/><path id="zabqn" d="M562.793 1339.793h2.897v4.345h-2.897z"/><path id="zabqo" d="M557 1339.793h2.897v4.345H557z"/><path id="zabqp" d="M572.931 1403.517H599v14.482h-26.069z"/><path id="zabqq" d="M568.68 1360.163a6.278 6.278 0 0 0-9.065 8.682l11.868 12.948a19.532 19.532 0 0 0 .395 20.04l1.053 1.684h18.828v-20.276z"/><path id="zabqr" d="M577.276 1407.862h2.897v2.896h-2.897z"/><path id="zabqs" d="M520.794 1349.062v-6.951a2.317 2.317 0 0 1 2.317-2.318h6.952a2.316 2.316 0 0 1 2.317 2.318v6.951a2.316 2.316 0 0 1-2.317 2.317h-6.952a2.317 2.317 0 0 1-2.317-2.317z"/><path id="zabqt" d="M520.794 1344.138h4.345v2.897h-4.345z"/><path id="zabqu" d="M528.035 1344.138h4.345v2.897h-4.345z"/><path id="zabqv" d="M590.31 1383.241c-.383 0-.752-.152-1.024-.424l-5.793-5.793a1.447 1.447 0 0 1 2.048-2.048l5.793 5.793a1.45 1.45 0 0 1-1.024 2.472z"/></defs><g><g transform="translate(-515 -1334)"><g><use fill="#ffb782" xlink:href="#zabqa"/></g><g><use fill="#d90014" xlink:href="#zabqb"/></g><g><use fill="#7a4930" xlink:href="#zabqc"/></g><g><use fill="#437fb4" xlink:href="#zabqd"/></g><g><use fill="#3e8cc7" xlink:href="#zabqe"/></g><g><use fill="#5eb3d1" xlink:href="#zabqf"/></g><g><use fill="#5eb3d1" xlink:href="#zabqg"/></g><g><use fill="#5eb3d1" xlink:href="#zabqh"/></g><g><use fill="#5eb3d1" xlink:href="#zabqi"/></g><g><use fill="#5eb3d1" xlink:href="#zabqj"/></g><g><use fill="#5eb3d1" xlink:href="#zabqk"/></g><g><use fill="#5eb3d1" xlink:href="#zabql"/></g><g><use fill="#5eb3d1" xlink:href="#zabqm"/></g><g><use fill="#5eb3d1" xlink:href="#zabqn"/></g><g><use fill="#5eb3d1" xlink:href="#zabqo"/></g><g><use fill="#4bad31" xlink:href="#zabqp"/></g><g><use fill="#ffb782" xlink:href="#zabqq"/></g><g><use fill="#6b962a" xlink:href="#zabqr"/></g><g><use fill="#fdb62f" xlink:href="#zabqs"/></g><g><use fill="#fd7b2f" xlink:href="#zabqt"/></g><g><use fill="#fd7b2f" xlink:href="#zabqu"/></g><g><use fill="#f2a46f" xlink:href="#zabqv"/></g></g></g></svg>