<svg xmlns="http://www.w3.org/2000/svg" xmlns:xlink="http://www.w3.org/1999/xlink" width="83" height="83" viewBox="0 0 83 83"><defs><path id="sgaoa" d="M571.202 1232.325c-6.923 0-14.281 2.291-14.281 6.536 0 4.245 7.358 6.536 14.28 6.536 6.924 0 14.282-2.29 14.282-6.536 0-4.245-7.358-6.536-14.281-6.536z"/><path id="sgaob" d="M578.778 1207.97a7.576 7.576 0 1 1-15.151 0 7.576 7.576 0 0 1 15.151 0zm-7.576-20.202c-11.14 0-20.202 9.063-20.202 20.203 0 6.916 3.29 14.352 9.779 22.102 4.777 5.706 9.485 9.373 9.684 9.526a1.206 1.206 0 0 0 1.479 0c.198-.153 4.907-3.82 9.684-9.526 6.489-7.75 9.779-15.186 9.779-22.102 0-11.14-9.063-20.203-20.203-20.203z"/><path id="sgaoc" d="M625.076 1198.534c-2.04-.83-4.725-1.288-7.561-1.288-2.836 0-5.522.457-7.56 1.288-2.384.971-3.696 2.397-3.696 4.015 0 1.617 1.312 3.043 3.695 4.014 2.04.83 4.724 1.289 7.561 1.289 2.836 0 5.522-.458 7.56-1.289 2.384-.97 3.696-2.397 3.696-4.014 0-1.618-1.312-3.043-3.695-4.015z"/><path id="sgaod" d="M571.202 1242.38c-6.052 0-12.436-1.751-13.947-5.028a3.568 3.568 0 0 0-.334 1.51c0 4.245 7.358 6.535 14.28 6.535 6.924 0 14.282-2.29 14.282-6.536a3.57 3.57 0 0 0-.334-1.509c-1.51 3.277-7.895 5.027-13.947 5.027z"/><path id="sgaoe" d="M625.076 1203.545c-2.04.83-4.724 1.288-7.561 1.288-2.836 0-5.522-.457-7.56-1.288-1.608-.655-2.726-1.517-3.285-2.505-.27.476-.411.982-.411 1.509 0 1.617 1.312 3.043 3.695 4.014 2.04.83 4.725 1.289 7.561 1.289 2.837 0 5.522-.458 7.56-1.289 2.384-.97 3.696-2.397 3.696-4.014 0-.527-.142-1.033-.411-1.51-.56.989-1.677 1.851-3.284 2.506z"/><path id="sgaof" d="M623.338 1178.807a5.823 5.823 0 1 1-11.645 0 5.823 5.823 0 0 1 11.645 0zM617.515 1163c-8.716 0-15.806 7.091-15.806 15.807 0 5.383 2.55 11.159 7.58 17.167 3.692 4.408 7.334 7.244 7.487 7.363a1.206 1.206 0 0 0 1.479 0c.153-.119 3.795-2.955 7.486-7.363 5.03-6.008 7.581-11.784 7.581-17.167 0-8.716-7.09-15.807-15.807-15.807z"/><path id="sgaog" d="M571.202 1187.768c-.77 0-1.528.045-2.275.129 10.072 1.134 17.927 9.703 17.927 20.074 0 6.916-3.29 14.352-9.78 22.102a72.805 72.805 0 0 1-8.148 8.257c.903.775 1.47 1.218 1.537 1.269a1.206 1.206 0 0 0 1.479 0c.198-.153 4.907-3.82 9.684-9.526 6.489-7.75 9.779-15.186 9.779-22.103 0-11.14-9.063-20.202-20.203-20.202z"/><path id="sgaoh" d="M617.515 1163c-.772 0-1.532.057-2.275.164 7.64 1.107 13.53 7.7 13.53 15.643 0 5.383-2.55 11.159-7.58 17.167a56.356 56.356 0 0 1-5.95 6.079 35.612 35.612 0 0 0 1.536 1.284 1.206 1.206 0 0 0 1.479 0c.153-.119 3.795-2.955 7.486-7.363 5.03-6.008 7.581-11.784 7.581-17.167 0-8.716-7.09-15.807-15.807-15.807z"/><path id="sgaoi" d="M600.324 1203.853a1.209 1.209 0 0 1-.158-2.407c.395-.052.799-.079 1.2-.079h.552a1.208 1.208 0 1 1 0 2.417h-.551c-.296 0-.592.02-.882.058-.054.007-.108.01-.16.01zm-5.319 3.197a1.208 1.208 0 0 1-.98-1.913c.357-.498.767-.961 1.217-1.376a1.209 1.209 0 0 1 1.639 1.776 6.67 6.67 0 0 0-.894 1.01 1.207 1.207 0 0 1-.982.503zm-1.32 6.064c-.567 0-1.073-.4-1.185-.977a9.098 9.098 0 0 1-.167-1.736v-.095a1.208 1.208 0 0 1 2.417.028v.067c0 .429.04.857.122 1.274a1.208 1.208 0 0 1-1.187 1.44zm3.511 5.119c-.22 0-.443-.06-.643-.187a9.094 9.094 0 0 1-1.447-1.133 1.208 1.208 0 1 1 1.675-1.741c.325.311.681.591 1.061.83a1.208 1.208 0 0 1-.646 2.23zm6.156 1.202h-1.596a1.208 1.208 0 1 1 0-2.417h1.596a1.208 1.208 0 0 1 0 2.417zm6.384 0h-1.596a1.208 1.208 0 1 1 0-2.417h1.596a1.208 1.208 0 0 1 0 2.417zm6.383 0h-1.596a1.208 1.208 0 1 1 0-2.417h1.596a1.208 1.208 0 0 1 0 2.417zm6.384.01c-.018 0-.036 0-.054-.002a9.211 9.211 0 0 0-.407-.009h-1.135a1.208 1.208 0 1 1 0-2.416h1.135c.17 0 .343.004.514.011a1.208 1.208 0 0 1-.053 2.416zm5.882 2.19c-.262 0-.526-.085-.748-.26a9.084 9.084 0 0 0-1.168-.783 1.208 1.208 0 1 1 1.186-2.106c.516.29 1.014.624 1.48.992a1.208 1.208 0 0 1-.75 2.157zm3.504 5.212a1.209 1.209 0 0 1-1.16-.875 8.98 8.98 0 0 0-.493-1.316 1.209 1.209 0 0 1 2.19-1.022c.252.538.462 1.1.626 1.671a1.208 1.208 0 0 1-1.163 1.542zm-.195 6.276a1.207 1.207 0 0 1-1.138-1.614c.157-.44.28-.896.367-1.356a1.209 1.209 0 0 1 2.374.447c-.11.583-.266 1.163-.465 1.72a1.208 1.208 0 0 1-1.138.803zm-3.821 4.983a1.207 1.207 0 0 1-.69-2.202 9.098 9.098 0 0 0 1.091-.888 1.208 1.208 0 1 1 1.667 1.75c-.429.408-.894.787-1.38 1.124-.21.146-.45.216-.688.216zm-6.011 1.82a1.208 1.208 0 0 1-.006-2.416l.226-.001c.404-.002.81-.03 1.205-.086a1.209 1.209 0 0 1 .331 2.394c-.501.07-1.014.106-1.525.108l-.225.001h-.006zm-6.384.03a1.208 1.208 0 0 1-.005-2.417l1.596-.008h.005a1.208 1.208 0 0 1 .006 2.417l-1.596.007h-.006zm-6.383.028a1.208 1.208 0 0 1-.005-2.417l1.595-.007h.006a1.208 1.208 0 0 1 .005 2.417l-1.596.007h-.005zm-6.384.03a1.208 1.208 0 0 1-.005-2.418l1.596-.007h.005a1.208 1.208 0 0 1 .006 2.417l-1.596.007h-.006zm-6.383.028a1.208 1.208 0 0 1-.006-2.416l1.596-.008h.006a1.208 1.208 0 0 1 .005 2.417l-1.596.007h-.005zm-6.384.03a1.208 1.208 0 0 1-.005-2.417l1.596-.008h.005a1.208 1.208 0 0 1 .006 2.417l-1.596.007h-.006z"/></defs><g><g transform="translate(-551 -1163)"><g><use fill="#ffdb56" xlink:href="#sgaoa"/></g><g><use fill="#d90014" xlink:href="#sgaob"/></g><g><use fill="#ffdb56" xlink:href="#sgaoc"/></g><g><g><use fill="#ffbb24" xlink:href="#sgaod"/></g><g><use fill="#ffbb24" xlink:href="#sgaoe"/></g></g><g><use fill="#d90014" xlink:href="#sgaof"/></g><g><g><use fill="#c40012" xlink:href="#sgaog"/></g><g><use fill="#c40012" xlink:href="#sgaoh"/></g></g><g><use fill="#1ea4e9" xlink:href="#sgaoi"/></g></g></g></svg>