<svg xmlns="http://www.w3.org/2000/svg" xmlns:xlink="http://www.w3.org/1999/xlink" width="81" height="92" viewBox="0 0 81 92"><defs><path id="j9u8a" d="M594.807 2038.622l-21.32 20.134L603.78 2084v-53.853z"/><path id="j9u8b" d="M523 2030.147V2084l30.293-25.244z"/><path id="j9u8c" d="M553.293 2058.756L523 2084h40.39v-15.707z"/><path id="j9u8d" d="M563.39 2068.293V2084h40.39l-30.292-25.244z"/><path id="j9u8e" d="M531.974 2021.671l-8.974 8.476h8.973z"/><path id="j9u8f" d="M603.78 2030.147l-8.974-8.476v8.476z"/><path id="j9u8g" d="M563.39 1992l-14.313 13.518 28.59-.034z"/><path id="j9u8h" d="M594.807 2038.622l8.973-8.475h-8.974z"/><path id="j9u8i" d="M563.39 2068.293l-31.418-29.672.001-8.474H523l30.293 28.61z"/><path id="j9u8j" d="M543.195 2025.659v-6.732h40.39v6.732zm0 6.732h40.39v6.731h-40.39zm-11.223 6.23l31.418 29.672 10.098-9.537 21.319-20.134v-8.475l-.001-8.476-.002-16.207-17.137.02-28.59.034-17.101.02-.002 16.133v8.476z"/><path id="j9u8k" d="M543.195 2025.659v-6.732h40.39v6.732z"/><path id="j9u8l" d="M543.195 2039.122v-6.731h40.39v6.731z"/></defs><g><g transform="translate(-523 -1992)"><g><use fill="#d80027" xlink:href="#j9u8a"/></g><g><use fill="#d90014" xlink:href="#j9u8b"/></g><g><use fill="#d80027" xlink:href="#j9u8c"/></g><g><use fill="#a2001d" xlink:href="#j9u8d"/></g><g><use fill="#ff5023" xlink:href="#j9u8e"/></g><g><use fill="#d90014" xlink:href="#j9u8f"/></g><g><use fill="#d90014" xlink:href="#j9u8g"/></g><g><use fill="#a2001d" xlink:href="#j9u8h"/></g><g><use fill="#a2001d" xlink:href="#j9u8i"/></g><g><use fill="#dedde0" xlink:href="#j9u8j"/></g><g><use fill="#fff" xlink:href="#j9u8k"/></g><g><use fill="#fff" xlink:href="#j9u8l"/></g></g></g></svg>