<svg xmlns="http://www.w3.org/2000/svg" xmlns:xlink="http://www.w3.org/1999/xlink" width="200" height="118" viewBox="0 0 200 118"><defs><path id="x5f1a" d="M1018.325 2203.584l1.21 26.573c.11 2.417-2.386 4.087-4.579 3.063l-24.103-11.26c-19.372 5.54-40.66-.196-54.58-15.372a47.704 47.704 0 0 1-1.768-2.032 55.068 55.068 0 0 1-3.368-4.504c-13.264-19.836-11.652-45.272 2.232-63.136.368-.472.744-.94 1.132-1.4.712-.86 1.46-1.704 2.236-2.524a54.113 54.113 0 0 1 9.264-7.82c24.784-16.576 58.312-9.924 74.884 14.856 13.368 19.995 11.624 45.672-2.56 63.556z"/><path id="x5f1b" d="M934.844 2204.055c-.112.168-.223.336-.34.5a55.054 55.054 0 0 1-3.368-4.504c-13.263-19.835-11.651-45.272 2.233-63.136.368-.472.744-.94 1.132-1.4 13.652 20.028 14.624 47.188.343 68.54z"/><path id="x5f1c" d="M928.86 2200.053c16.634-24.868 9.876-58.543-15.12-75.057-24.867-16.428-58.056-9.74-74.625 15.034-13.37 19.991-11.622 45.67 2.56 63.553l-1.208 26.576c-.11 2.418 2.386 4.088 4.58 3.063l24.1-11.265c21.944 6.278 46.344-1.913 59.714-21.904z"/><path id="x5f1d" d="M882.389 2189.458c-10.792 0-19.572-8.78-19.572-19.572s8.78-19.571 19.572-19.571c10.791 0 19.571 8.78 19.571 19.571 0 4.31-1.403 8.295-3.771 11.532l-13.666-13.666a3.02 3.02 0 0 0-4.268 4.269l13.665 13.665a19.463 19.463 0 0 1-11.531 3.772zm27.923 4.084l-7.82-7.821a25.475 25.475 0 0 0 5.504-15.834c0-14.12-11.487-25.608-25.607-25.608s-25.608 11.488-25.608 25.608c0 14.12 11.488 25.607 25.608 25.607a25.474 25.474 0 0 0 15.834-5.504l7.821 7.822a3.01 3.01 0 0 0 2.134.884 3.02 3.02 0 0 0 2.134-5.153z"/><path id="x5f1e" d="M968.984 2170.67l6.799-16.336 6.799 16.335zm28.39 19.83l-7.48-17.971a11.21 11.21 0 0 0-.012-.028l-11.313-27.18a3.018 3.018 0 0 0-5.572 0l-11.312 27.177-.014.035-7.479 17.967a3.018 3.018 0 0 0 5.573 2.32l6.707-16.114h18.622l6.707 16.113a3.02 3.02 0 1 0 5.573-2.32z"/></defs><g><g transform="translate(-830 -2116)"><g><use fill="#1a1a1d" xlink:href="#x5f1a"/></g><g><use fill="#fff" xlink:href="#x5f1b"/></g><g><use fill="#d90014" xlink:href="#x5f1c"/></g><g><use fill="#fff" xlink:href="#x5f1d"/></g><g><use fill="#d90014" xlink:href="#x5f1e"/></g></g></g></svg>