<svg xmlns="http://www.w3.org/2000/svg" xmlns:xlink="http://www.w3.org/1999/xlink" width="83" height="102" viewBox="0 0 83 102"><defs><path id="zw2sa" d="M621.113 840.923H563.21c-6.742 0-12.209-5.467-12.209-12.21V790.41c0-6.742 5.467-12.209 12.21-12.209h57.903c6.743 0 12.21 5.467 12.21 12.21v38.303c0 6.742-5.467 12.209-12.21 12.209z"/><path id="zw2sb" d="M621.113 778.201h-28.952v62.722h28.952c6.743 0 12.21-5.467 12.21-12.21V790.41c0-6.742-5.467-12.209-12.21-12.209z"/><path id="zw2sc" d="M592.161 817.402c-3.234 0-5.88-2.646-5.88-5.88v-11.76c0-3.234 2.646-5.88 5.88-5.88s5.88 2.646 5.88 5.88v11.76c0 3.234-2.646 5.88-5.88 5.88z"/><path id="zw2sd" d="M563.21 778.201h7.39v-12.74c0-10.267 9.673-18.62 21.561-18.62s21.56 8.353 21.56 18.62v12.74h7.392c.151 0 .298.018.449.022V765.46c0-14.554-13.23-26.461-29.4-26.461-16.171 0-29.402 11.907-29.402 26.46v12.763c.151-.004.298-.022.45-.022z"/></defs><g><g transform="translate(-551 -739)"><g><use fill="#c7cac7" xlink:href="#zw2sa"/></g><g><use fill="#e7eced" xlink:href="#zw2sb"/></g><g><use fill="#4c4c4f" xlink:href="#zw2sc"/></g><g><use fill="#546a79" xlink:href="#zw2sd"/></g></g></g></svg>