<svg xmlns="http://www.w3.org/2000/svg" xmlns:xlink="http://www.w3.org/1999/xlink" width="76" height="76" viewBox="0 0 76 76"><defs><path id="p45ua" d="M595.661 2400c20.8 0 37.661 16.86 37.661 37.661 0 20.799-16.86 37.661-37.66 37.661-20.802 0-37.662-16.863-37.662-37.66 0-20.802 16.86-37.662 37.661-37.662z"/><path id="p45ub" d="M595.661 2411.767c14.3 0 25.892 11.592 25.892 25.892 0 14.297-11.593 25.892-25.892 25.892-14.3 0-25.892-11.595-25.892-25.892 0-14.3 11.593-25.892 25.892-25.892z"/><path id="p45uc" d="M595.661 2423.536c7.798 0 14.123 6.322 14.123 14.123 0 7.8-6.325 14.123-14.123 14.123-7.798 0-14.123-6.323-14.123-14.123 0-7.8 6.325-14.123 14.123-14.123z"/><path id="p45ud" d="M606.253 2423.536a5.884 5.884 0 0 1 5.885 5.884 5.884 5.884 0 0 1-5.885 5.885 5.884 5.884 0 0 1-5.884-5.885 5.884 5.884 0 0 1 5.884-5.884z"/><path id="p45ue" d="M609.386 2434.387a14.126 14.126 0 0 0-7.17-9.23 5.85 5.85 0 0 0-1.847 4.263 5.884 5.884 0 0 0 5.884 5.885 5.84 5.84 0 0 0 3.133-.918z"/><path id="p45uf" d="M598.015 2461.197c-14.3 0-25.892-11.595-25.892-25.892 0-6.55 2.453-12.515 6.464-17.075-5.395 4.746-8.818 11.68-8.818 19.429 0 14.297 11.593 25.892 25.892 25.892 7.749 0 14.683-3.423 19.429-8.818-4.562 4.011-10.525 6.464-17.075 6.464z"/></defs><g><g transform="translate(-558 -2400)"><g><use fill="#e4e7e7" xlink:href="#p45ua"/></g><g><use fill="#26a6d1" xlink:href="#p45ub"/></g><g><use fill="#324d5b" xlink:href="#p45uc"/></g><g><use fill="#d4edf6" xlink:href="#p45ud"/></g><g><use fill="#d6dbde" xlink:href="#p45ue"/></g><g><use fill="#2296bd" xlink:href="#p45uf"/></g></g></g></svg>