<svg xmlns="http://www.w3.org/2000/svg" xmlns:xlink="http://www.w3.org/1999/xlink" width="83" height="83" viewBox="0 0 83 83"><defs><path id="nzeka" d="M563.134 1793.133l-12.082 12.081-1.94-1.94 12.082-12.082z"/><path id="nzekb" d="M552.575 1776.374c0-14.014 11.36-25.374 25.374-25.374 14.013 0 25.374 11.36 25.374 25.374 0 14.013-11.36 25.373-25.374 25.373-14.013 0-25.374-11.36-25.374-25.373z"/><path id="nzekc" d="M558.009 1776.374c0-11.013 8.927-19.94 19.94-19.94 11.013 0 19.94 8.927 19.94 19.94 0 11.012-8.927 19.94-19.94 19.94-11.013 0-19.94-8.928-19.94-19.94z"/><path id="nzekd" d="M567.769 1767.565a1.372 1.372 0 0 1-.97-2.342 15.666 15.666 0 0 1 11.15-4.619c4.212 0 8.172 1.64 11.15 4.62a1.372 1.372 0 1 1-1.94 1.94 12.94 12.94 0 0 0-9.21-3.816 12.94 12.94 0 0 0-9.21 3.815 1.368 1.368 0 0 1-.97.402z"/><path id="nzeke" d="M551.293 1811.014l-21.166 21.165c-2.204 2.205-4.491.916-6.696-1.288-2.204-2.204-3.492-4.491-1.288-6.696l21.166-21.165 6.579 1.405z"/><path id="nzekf" d="M553.87 1808.436l-2.578 2.578-7.984-7.984 2.579-2.578a5.646 5.646 0 0 1 7.984 7.984z"/></defs><g><g transform="translate(-521 -1751)"><g><use fill="#ece7ea" xlink:href="#nzeka"/></g><g><use fill="#d90014" xlink:href="#nzekb"/></g><g><use fill="#ece7ea" xlink:href="#nzekc"/></g><g><use fill="#fff" xlink:href="#nzekd"/></g><g><use fill="#1b4145" xlink:href="#nzeke"/></g><g><use fill="#c2b8b9" xlink:href="#nzekf"/></g></g></g></svg>