<svg xmlns="http://www.w3.org/2000/svg" xmlns:xlink="http://www.w3.org/1999/xlink" width="83" height="91" viewBox="0 0 83 91"><defs><path id="t3nsa" d="M555.085 1205.564c24.71-9.244 41.086-32.854 41.086-59.236v-15.99c-8.471 0-15.339-6.867-15.339-15.338h-51.494c0 8.471-6.867 15.339-15.338 15.339v15.989c0 26.382 16.376 49.992 41.085 59.236z"/><path id="t3nsb" d="M555.085 1205.564c24.71-9.244 41.086-32.854 41.086-59.236v-15.99c-8.471 0-15.339-6.867-15.339-15.338h-25.747v90.564z"/><path id="t3nsc" d="M549.362 1176.251l-13.62-13.62 7.504-7.505 6.116 6.116 17.563-17.563 7.504 7.505z"/><path id="t3nsd" d="M555.085 1170.527v-15.008l11.84-11.84 7.504 7.505z"/></defs><g><g transform="translate(-514 -1115)"><g><use fill="#4bad31" fill-opacity=".8" xlink:href="#t3nsa"/></g><g><use fill="#4bad31" xlink:href="#t3nsb"/></g><g><use fill="#f1f1f2" xlink:href="#t3nsc"/></g><g><use fill="#e6e6e6" xlink:href="#t3nsd"/></g></g></g></svg>