<svg xmlns="http://www.w3.org/2000/svg" xmlns:xlink="http://www.w3.org/1999/xlink" width="82" height="110" viewBox="0 0 82 110"><defs><path id="uqlna" d="M554.743 2347.792v-20.823h45.431v20.823z"/><path id="uqlnb" d="M585.03 2347.792h-30.287v-20.823h17.843c6.874 0 12.445 5.571 12.445 12.445z"/><path id="uqlnc" d="M567.994 2337.38a4.732 4.732 0 1 1 9.465 0 4.732 4.732 0 0 1-9.465 0z"/><path id="uqlnd" d="M569.705 2258.259a6.622 6.622 0 0 0 3.968-6.062 6.625 6.625 0 0 0-6.625-6.625 6.618 6.618 0 0 0-6.062 3.968z"/><path id="uqlne" d="M579.17 2267.723a6.622 6.622 0 0 0 3.968-6.06 6.625 6.625 0 0 0-6.626-6.626 6.618 6.618 0 0 0-6.06 3.967z"/><path id="uqlnf" d="M588.635 2277.188a6.622 6.622 0 0 0 3.968-6.061 6.625 6.625 0 0 0-6.626-6.625 6.618 6.618 0 0 0-6.061 3.967z"/><path id="uqlng" d="M598.1 2286.653a6.622 6.622 0 0 0 3.967-6.061 6.625 6.625 0 0 0-6.625-6.626 6.618 6.618 0 0 0-6.061 3.968z"/><path id="uqlnh" d="M559.476 2300.468h-18.93c-3.644 0-6.625-2.982-6.625-6.626 0-3.643 2.981-6.625 6.625-6.625h18.93c3.644 0 6.625 2.982 6.625 6.625 0 3.644-2.981 6.626-6.625 6.626z"/><path id="uqlni" d="M598.539 2297.748l-21.05 21.05a4.342 4.342 0 0 1-6.14 0l-18.328-18.33h-12.473c-1.094.536-4.08-1.397-2.934-.415l20.467 20.388c.14.14.302.24.45.367v6.161h37.86v-8.537c3.443-2.591 5.678-6.697 5.678-11.339a14.14 14.14 0 0 0-3.53-9.345z"/><path id="uqlnj" d="M554.917 2243.469l-29.448 29.449 14.37 14.371c.238-.025.467-.072.707-.072h18.93c3.644 0 6.625 2.982 6.625 6.625 0 3.644-2.981 6.626-6.625 6.626h-6.457l12.03 12.03 29.447-29.45z"/><path id="uqlnk" d="M554.917 2243.469l-4.196-4.197a4.342 4.342 0 0 0-6.141 0l-23.308 23.306a4.344 4.344 0 0 0 0 6.143l4.197 4.197z"/><path id="uqlnl" d="M600.795 2289.349l-6.3-6.3-29.446 29.449 6.297 6.298a4.342 4.342 0 0 0 6.141 0l23.306-23.307a4.34 4.34 0 0 0 .002-6.14z"/><path id="uqlnm" d="M580.298 2301.414a3.786 3.786 0 1 1 7.572 0 3.786 3.786 0 0 1-7.572 0z"/><path id="uqlnn" d="M535.814 2258.823a1.89 1.89 0 0 1-1.338-3.231l3.785-3.787a1.89 1.89 0 0 1 2.677 0c.74.74.74 1.937 0 2.677l-3.786 3.786c-.37.37-.854.555-1.338.555z"/></defs><g><g transform="translate(-520 -2238)"><g><use fill="#c8d2d6" xlink:href="#uqlna"/></g><g><use fill="#e7eced" xlink:href="#uqlnb"/></g><g><use fill="#7383bf" xlink:href="#uqlnc"/></g><g><use fill="#fbce9d" xlink:href="#uqlnd"/></g><g><use fill="#fbce9d" xlink:href="#uqlne"/></g><g><use fill="#fbce9d" xlink:href="#uqlnf"/></g><g><use fill="#fbce9d" xlink:href="#uqlng"/></g><g><use fill="#fbce9d" xlink:href="#uqlnh"/></g><g><g><use fill="#f7b563" xlink:href="#uqlni"/></g></g><g><use fill="#424a60" xlink:href="#uqlnj"/></g><g><g><use fill="#e7eced" xlink:href="#uqlnk"/></g><g><use fill="#e7eced" xlink:href="#uqlnl"/></g></g><g><use fill="#fff" xlink:href="#uqlnm"/></g><g><use fill="#424a60" xlink:href="#uqlnn"/></g></g></g></svg>