<svg xmlns="http://www.w3.org/2000/svg" xmlns:xlink="http://www.w3.org/1999/xlink" width="83" height="83" viewBox="0 0 83 83"><defs><path id="qhqfa" d="M633.322 1022.087v-67.69c0-3.99-3.246-7.397-7.235-7.397h-2.412l-4.984 3.768v74.635l4.984 3.92h2.412c3.99 0 7.235-3.247 7.235-7.236z"/><path id="qhqfb" d="M623.675 947v82.322H563.06a2.388 2.388 0 0 1-2.412-2.412v-4.968l-2.412-2.556 2.412-2.364v-11.963l-2.412-2.266 2.412-2.653v-11.963l-2.412-2.122 2.412-2.798v-11.963l-2.412-2.556 2.412-2.363v-16.963A2.388 2.388 0 0 1 563.06 947z"/><path id="qhqfc" d="M596.985 947h26.69v82.322h-26.69z"/><path id="qhqfd" d="M560.647 971.303v-4.915c-3.087-.475-4.823-1.7-4.823-2.184 0-.484 1.736-1.709 4.823-2.184.746-.115 1.504-.228 2.412-.228 4.668 0 7.235 1.812 7.235 2.412a2.41 2.41 0 1 0 4.824 0c0-4.124-5.184-7.235-12.06-7.235-.83 0-1.635.05-2.41.137-5.639.634-9.648 3.473-9.648 7.098s4.009 6.464 9.647 7.098z"/><path id="qhqfe" d="M563.059 1007.616c-.832 0-1.636.05-2.412.137-5.638.634-9.647 3.473-9.647 7.099 0 3.625 4.009 6.464 9.647 7.098v-4.914c-3.087-.475-4.823-1.7-4.823-2.184 0-.484 1.736-1.71 4.823-2.185.746-.115 1.504-.227 2.412-.227 4.668 0 7.235 1.811 7.235 2.412a2.41 2.41 0 1 0 4.824 0c0-4.124-5.184-7.236-12.06-7.236z"/><path id="qhqff" d="M563.059 990.734c-.832 0-1.636.05-2.412.137-5.638.634-9.647 3.473-9.647 7.098s4.009 6.464 9.647 7.098v-4.914c-3.087-.475-4.823-1.7-4.823-2.184 0-.484 1.736-1.709 4.823-2.184.746-.115 1.504-.228 2.412-.228 4.668 0 7.235 1.812 7.235 2.412a2.41 2.41 0 1 0 4.824 0c0-4.124-5.184-7.235-12.06-7.235z"/><path id="qhqfg" d="M563.059 973.851c-.832 0-1.636.05-2.412.137-5.638.634-9.647 3.473-9.647 7.099 0 3.625 4.009 6.464 9.647 7.098v-4.914c-3.087-.475-4.823-1.7-4.823-2.184 0-.484 1.736-1.71 4.823-2.185.746-.115 1.504-.227 2.412-.227 4.668 0 7.235 1.811 7.235 2.412a2.41 2.41 0 1 0 4.824 0c0-4.124-5.184-7.236-12.06-7.236z"/><path id="qhqfh" d="M596.985 981.087a7.225 7.225 0 0 1-7.236-7.236 7.225 7.225 0 0 1 7.236-7.235 7.225 7.225 0 0 1 7.235 7.235 7.225 7.225 0 0 1-7.235 7.236zm0-24.118c-9.31 0-16.883 7.573-16.883 16.882 0 3.28.965 6.464 2.702 9.213l12.155 18.62a2.432 2.432 0 0 0 2.026 1.109c.82 0 1.592-.435 2.025-1.11l12.156-18.619c1.736-2.75 2.701-5.933 2.701-9.213 0-9.309-7.573-16.882-16.882-16.882z"/><path id="qhqfi" d="M613.867 1007.616a2.388 2.388 0 0 1-2.412 2.412h-28.941a2.388 2.388 0 0 1-2.412-2.412 2.388 2.388 0 0 1 2.412-2.412h28.941a2.388 2.388 0 0 1 2.412 2.412z"/><path id="qhqfj" d="M609.044 1017.263a2.388 2.388 0 0 1-2.412 2.412h-19.294a2.388 2.388 0 0 1-2.412-2.412 2.388 2.388 0 0 1 2.412-2.411h19.294a2.388 2.388 0 0 1 2.412 2.411z"/><path id="qhqfk" d="M609.044 1017.263a2.388 2.388 0 0 1-2.412 2.412h-9.647v-4.823h9.647a2.388 2.388 0 0 1 2.412 2.411z"/><path id="qhqfl" d="M613.867 1007.616a2.388 2.388 0 0 1-2.412 2.412h-14.47v-4.824h14.47a2.388 2.388 0 0 1 2.412 2.412z"/><path id="qhqfm" d="M613.867 973.851c0 3.28-.964 6.464-2.701 9.213l-12.156 18.62a2.432 2.432 0 0 1-2.025 1.109v-21.706a7.225 7.225 0 0 0 7.235-7.236 7.225 7.225 0 0 0-7.235-7.235v-9.647c9.309 0 16.882 7.573 16.882 16.882z"/></defs><g><g transform="translate(-551 -947)"><g><use fill="#dfd7d5" xlink:href="#qhqfa"/></g><g><use fill="#d90014" xlink:href="#qhqfb"/></g><g><use fill="#c90114" xlink:href="#qhqfc"/></g><g><g><use fill="#53433f" xlink:href="#qhqfd"/></g><g><use fill="#53433f" xlink:href="#qhqfe"/></g><g><use fill="#53433f" xlink:href="#qhqff"/></g><g><use fill="#53433f" xlink:href="#qhqfg"/></g></g><g><use fill="#fff" xlink:href="#qhqfh"/></g><g><use fill="#ff7816" xlink:href="#qhqfi"/></g><g><use fill="#ff7816" xlink:href="#qhqfj"/></g><g><use fill="#ff4b00" xlink:href="#qhqfk"/></g><g><use fill="#ff4b00" xlink:href="#qhqfl"/></g><g><use fill="#f5f5f5" xlink:href="#qhqfm"/></g></g></g></svg>