<svg xmlns="http://www.w3.org/2000/svg" xmlns:xlink="http://www.w3.org/1999/xlink" width="112" height="135" viewBox="0 0 112 135"><defs><path id="dh5ka" d="M943.11 2829.807l17.445 17.444L978 2829.806z"/><path id="dh5kb" d="M928.198 2881.579v-72.031h64.434v72.03z"/><path id="dh5kc" d="M981.095 2876.795c-13.787 1.688-27.293 1.688-41.08 0 1.97-12.099 1.97-24.197 0-36.578 13.787-1.688 27.293-1.688 41.08 0-1.97 12.38-1.97 24.48 0 36.578z"/><path id="dh5kd" d="M931.855 2802.514v27.293c0 15.756 12.943 28.7 28.7 28.7s28.7-12.944 28.7-28.7v-27.293z"/><path id="dh5ke" d="M960.555 2777.472c-17.726 0-32.357 14.35-32.357 32.076h64.715c0-17.727-14.631-32.076-32.358-32.076z"/><path id="dh5kf" d="M998.821 2810.955h-3.939c0-19.978-15.475-36.297-34.327-36.297-18.852 0-34.327 16.32-34.327 36.297h-3.94c0-22.229 17.164-39.955 38.267-39.955s38.266 18.008 38.266 39.955z"/><path id="dh5kg" d="M984.472 2849.221h-18.57v-3.658h18.57c3.376 0 6.19-2.814 6.19-6.19v-7.034h3.939v7.034c0 5.346-4.502 9.848-10.13 9.848z"/><path id="dh5kh" d="M964.776 2842.75h-8.441c-2.251 0-3.94 1.969-3.94 3.939v.844c0 2.25 1.97 3.94 3.94 3.94h8.44c2.252 0 3.94-1.97 3.94-3.94v-.844c0-1.97-1.688-3.94-3.94-3.94z"/><path id="dh5ki" d="M1003.605 2814.05h-2.251v14.35h2.251c1.688 0 2.814-1.126 2.814-2.814v-8.723c0-1.688-1.407-2.813-2.814-2.813z"/><path id="dh5kj" d="M914.692 2816.582v8.722c0 1.689 1.125 2.814 2.814 2.814h2.25v-14.35h-2.25c-1.407.282-2.814 1.407-2.814 2.814z"/><path id="dh5kk" d="M995.726 2809.548h-6.471v22.79h6.471c3.095 0 5.628-2.532 5.628-5.627v-11.536c0-3.095-2.533-5.627-5.628-5.627z"/><path id="dh5kl" d="M919.756 2815.175v11.536c0 3.096 2.533 5.628 5.628 5.628h6.471v-22.791h-6.471c-3.095 0-5.628 2.532-5.628 5.627z"/><path id="dh5km" d="M976.593 2809.548v-8.723l-3.095 8.723z"/><path id="dh5kn" d="M954.646 2809.548v-6.472l-3.657 6.472z"/><path id="dh5ko" d="M941.14 2866.666l19.415 19.414 19.415-19.414z"/><path id="dh5kp" d="M982.502 2866.666h-2.814l-19.414 19.414-19.415-19.414h-2.814c-18.851 0-34.045 15.194-34.045 34.046v5.346h111.985v-5.346c.563-18.852-14.631-34.046-33.483-34.046z"/></defs><g><g transform="translate(-904 -2771)"><g><use fill="#f8b64c" xlink:href="#dh5ka"/></g><g><use fill="#40596b" xlink:href="#dh5kb"/></g><g><use fill="#f8b64c" xlink:href="#dh5kc"/></g><g><use fill="#ffd15c" xlink:href="#dh5kd"/></g><g><use fill="#40596b" xlink:href="#dh5ke"/></g><g><use fill="#cdd6e0" xlink:href="#dh5kf"/></g><g><use fill="#f2f2f2" xlink:href="#dh5kg"/></g><g><use fill="#acb3ba" xlink:href="#dh5kh"/></g><g><g><use fill="#cdd6e0" xlink:href="#dh5ki"/></g><g><use fill="#cdd6e0" xlink:href="#dh5kj"/></g></g><g><g><use fill="#d90014" xlink:href="#dh5kk"/></g><g><use fill="#d90014" xlink:href="#dh5kl"/></g></g><g><g><use fill="#ffd15c" xlink:href="#dh5km"/></g><g><use fill="#ffd15c" xlink:href="#dh5kn"/></g></g><g><use fill="#f8b64c" xlink:href="#dh5ko"/></g><g><use fill="#d90014" xlink:href="#dh5kp"/></g></g></g></svg>