<svg xmlns="http://www.w3.org/2000/svg" xmlns:xlink="http://www.w3.org/1999/xlink" width="133" height="175" viewBox="0 0 133 175"><defs><path id="jpl2a" d="M574.973 1369.324v-21.164h12.882v21.164z"/><path id="jpl2b" d="M562.64 1300.389c0-21.052 16.457-38.118 36.757-38.118 20.3 0 36.757 17.066 36.757 38.118 0 21.052-16.457 38.118-36.757 38.118-20.3 0-36.756-17.066-36.756-38.118z"/><path id="jpl2c" d="M526.633 1299.871c0-21.052 16.456-38.118 36.756-38.118s36.757 17.066 36.757 38.118c0 21.052-16.457 38.118-36.757 38.118-20.3 0-36.756-17.066-36.756-38.118z"/><path id="jpl2d" d="M530.617 1314.333c0-3.788 2.961-6.859 6.614-6.859s6.614 3.07 6.614 6.859c0 3.788-2.961 6.86-6.614 6.86s-6.614-3.072-6.614-6.86z"/><path id="jpl2e" d="M533.73 1315.253c0-2.229 1.742-4.035 3.89-4.035 2.15 0 3.891 1.806 3.891 4.035 0 2.228-1.741 4.034-3.89 4.034s-3.89-1.806-3.89-4.034z"/><path id="jpl2f" d="M617.857 1314.332c0-3.788 2.962-6.859 6.614-6.859 3.653 0 6.614 3.07 6.614 6.859 0 3.788-2.96 6.86-6.614 6.86-3.652 0-6.614-3.072-6.614-6.86z"/><path id="jpl2g" d="M620.191 1314.735c0-2.228 1.742-4.035 3.89-4.035 2.15 0 3.891 1.807 3.891 4.035s-1.742 4.034-3.89 4.034c-2.149 0-3.89-1.806-3.89-4.034z"/><path id="jpl2h" d="M540.137 1275.462c0-8.151 8.151-16.303 16.303-16.303h48.908c8.152 0 16.303 8.152 16.303 16.303v32.665c0 20.379-20.378 40.757-40.757 40.757-20.379 0-40.757-20.378-40.757-40.757z"/><path id="jpl2i" d="M566.14 1338.265c0-8.796 6.718-15.927 15.003-15.927 8.286 0 15.003 7.13 15.003 15.927s-6.717 15.928-15.003 15.928c-8.285 0-15.002-7.131-15.002-15.928z"/><path id="jpl2j" d="M564.64 1249.046c0-18.188 14.173-32.932 31.655-32.932 17.481 0 31.653 14.744 31.653 32.932 0 18.188-14.172 32.932-31.653 32.932-17.482 0-31.654-14.744-31.654-32.932z"/><path id="jpl2k" d="M603.445 1251.898c0-10.311 8.06-18.67 18.004-18.67 9.942 0 18.003 8.359 18.003 18.67 0 10.311-8.06 18.67-18.003 18.67s-18.004-8.359-18.004-18.67z"/><path id="jpl2l" d="M530.395 1255.788c0-12.173 9.57-22.041 21.374-22.041 11.804 0 21.374 9.868 21.374 22.041s-9.57 22.041-21.374 22.041c-11.805 0-21.374-9.868-21.374-22.04z"/><path id="jpl2m" d="M513.78 1282.756c0-15.038 8.586-27.228 19.179-27.228 10.592 0 19.18 12.19 19.18 27.228 0 15.037-8.588 27.227-19.18 27.227-10.593 0-19.18-12.19-19.18-27.227z"/><path id="jpl2n" d="M609.648 1281.978c0-15.18 8.007-27.487 17.883-27.487 9.877 0 17.883 12.306 17.883 27.487 0 15.18-8.006 27.487-17.883 27.487-9.876 0-17.883-12.307-17.883-27.487z"/><path id="jpl2o" d="M550.326 1323.033c0-5.952 4.76-10.777 10.633-10.777 5.872 0 10.632 4.825 10.632 10.777 0 5.952-4.76 10.776-10.632 10.776s-10.633-4.824-10.633-10.776z"/><path id="jpl2p" d="M535.969 1321.535a1.365 1.365 0 1 1 2.73 0 1.365 1.365 0 0 1-2.73 0z"/><path id="jpl2q" d="M582.385 1324.662a.768.768 0 1 1 1.537 0 .768.768 0 0 1-1.537 0z"/><path id="jpl2r" d="M579.188 1324.662a.768.768 0 1 1 1.536 0 .768.768 0 0 1-1.537 0z"/><path id="jpl2s" d="M557.344 1298.459c0-4.125 4.125-8.25 8.25-8.25 4.126 0 8.25 4.125 8.25 8.25v12.173c0 4.126-4.124 8.25-8.25 8.25-4.125 0-8.25-4.124-8.25-8.25z"/><path id="jpl2t" d="M561.152 1306.135a4.677 4.677 0 1 1 9.355 0 4.677 4.677 0 0 1-9.355 0z"/><path id="jpl2u" d="M564.617 1304.378a1.213 1.213 0 1 1 2.426 0 1.213 1.213 0 0 1-2.426 0z"/><path id="jpl2v" d="M591.297 1323.033c0-5.952 4.76-10.777 10.632-10.777 5.873 0 10.633 4.825 10.633 10.777 0 5.952-4.76 10.776-10.633 10.776-5.872 0-10.632-4.824-10.632-10.776z"/><path id="jpl2w" d="M588.98 1298.459c0-4.125 4.126-8.25 8.251-8.25 4.125 0 8.25 4.125 8.25 8.25v12.173c0 4.126-4.125 8.25-8.25 8.25s-8.25-4.124-8.25-8.25z"/><path id="jpl2x" d="M592.79 1306.135a4.677 4.677 0 1 1 9.354 0 4.677 4.677 0 0 1-9.355 0z"/><path id="jpl2y" d="M596.254 1304.378a1.213 1.213 0 1 1 2.426 0 1.213 1.213 0 0 1-2.426 0z"/><path id="jpl2z" d="M551.781 1287.123l5.588 4.808"/><path id="jpl2A" d="M554.484 1284.02l4.236 6.1"/><path id="jpl2B" d="M558.309 1282.377l2.405 6.603"/><path id="jpl2C" d="M610.816 1287.088l-6.035 5.192"/><path id="jpl2D" d="M607.895 1283.737l-4.574 6.588"/><path id="jpl2E" d="M603.766 1281.962l-2.598 7.131"/><path id="jpl2F" d="M623.098 1321.535a1.365 1.365 0 1 1 2.73 0 1.365 1.365 0 0 1-2.73 0z"/><path id="jpl2G" d="M566.824 1284.47c.29-.43 1.01-.57 1.44-.28l4.73 3.19c.43.29.57 1.01.28 1.44-.29.43-1.01.57-1.44.28l-4.73-3.19c-.43-.29-.57-1.01-.28-1.44z"/><path id="jpl2H" d="M592.11 1285.308c.26.449.07 1.157-.38 1.416l-4.94 2.853c-.449.26-1.157.07-1.417-.38-.26-.449-.07-1.157.38-1.417l4.94-2.852c.45-.26 1.158-.07 1.417.38z"/><path id="jpl2I" d="M604.337 1228.047l.253 2.056a6.474 6.474 0 0 1 2.2.231 6.47 6.47 0 0 1 2.21 1.126 6.53 6.53 0 0 1 1.627 1.872 6.436 6.436 0 0 1 .618 1.47l2.07-.253a8.516 8.516 0 0 0-1.854-3.58 8.635 8.635 0 0 0-2.578-2.015 8.541 8.541 0 0 0-4.545-.907z"/><path id="jpl2J" d="M603.435 1229.191a1.035 1.035 0 1 1 2.055-.252 1.035 1.035 0 0 1-2.055.252z"/><path id="jpl2K" d="M611.197 1234.653a1.048 1.048 0 0 1 .927-1.157c.582-.072 1.11.33 1.18.898a1.048 1.048 0 0 1-.927 1.157 1.048 1.048 0 0 1-1.18-.898z"/><path id="jpl2L" d="M592.615 1369.45c1.48 0 2.96 1.48 2.96 2.959 0 1.48-1.48 2.96-2.96 2.96h-22.756c-1.48 0-2.96-1.48-2.96-2.96s1.48-2.96 2.96-2.96z"/><path id="jpl2M" d="M559.615 1378.05c0-2.5 2.5-5 5-5h32.693c2.5 0 5 2.5 5 5v12.562h-42.693z"/><path id="jpl2N" d="M584.835 1340.038h-.001a8.455 8.455 0 0 0-2.795-2.042 8.429 8.429 0 0 0-3.504-.754 8.483 8.483 0 0 0-5.69 2.186v-.034l-.001-.034c0-1.653.625-3.207 1.76-4.376a5.89 5.89 0 0 1 8.506 0 6.24 6.24 0 0 1 1.76 4.376c0 .224-.011.452-.035.677z"/></defs><g><g transform="translate(-513 -1216)"><use fill="#f4ac9b" xlink:href="#jpl2a"/></g><g transform="translate(-513 -1216)"><use fill="#eb4323" xlink:href="#jpl2b"/></g><g transform="translate(-513 -1216)"><use fill="#ff5b3b" xlink:href="#jpl2c"/></g><g transform="translate(-513 -1216)"><use fill="#efc2a2" xlink:href="#jpl2d"/></g><g transform="translate(-513 -1216)"><use fill="#e39083" xlink:href="#jpl2e"/></g><g transform="translate(-513 -1216)"><use fill="#efc2a2" xlink:href="#jpl2f"/></g><g transform="translate(-513 -1216)"><use fill="#e39083" xlink:href="#jpl2g"/></g><g transform="translate(-513 -1216)"><use fill="#f4c19b" xlink:href="#jpl2h"/></g><g transform="translate(-513 -1216)"><use fill="#f4c19b" xlink:href="#jpl2i"/></g><g transform="translate(-513 -1216)"><use fill="#ff5b3b" xlink:href="#jpl2j"/></g><g transform="translate(-513 -1216)"><use fill="#ff5b3b" xlink:href="#jpl2k"/></g><g transform="translate(-513 -1216)"><use fill="#ff5b3b" xlink:href="#jpl2l"/></g><g transform="translate(-513 -1216)"><use fill="#ff5b3b" xlink:href="#jpl2m"/></g><g transform="translate(-513 -1216)"><use fill="#ff5b3b" xlink:href="#jpl2n"/></g><g transform="translate(-513 -1216)"><use fill="#f4ac9b" xlink:href="#jpl2o"/></g><g transform="translate(-513 -1216)"><use fill="#fff" xlink:href="#jpl2p"/></g><g transform="translate(-513 -1216)"><use fill="#da4668" xlink:href="#jpl2q"/></g><g transform="translate(-513 -1216)"><use fill="#da4668" xlink:href="#jpl2r"/></g><g transform="translate(-513 -1216)"><use fill="#fff" xlink:href="#jpl2s"/></g><g transform="translate(-513 -1216)"><use fill="#2a96bf" xlink:href="#jpl2t"/></g><g transform="translate(-513 -1216)"><use fill="#fff" xlink:href="#jpl2u"/></g><g transform="translate(-513 -1216)"><use fill="#f4ac9b" xlink:href="#jpl2v"/></g><g transform="translate(-513 -1216)"><use fill="#fff" xlink:href="#jpl2w"/></g><g transform="translate(-513 -1216)"><use fill="#2a96bf" xlink:href="#jpl2x"/></g><g transform="translate(-513 -1216)"><use fill="#fff" xlink:href="#jpl2y"/></g><g transform="translate(-513 -1216)"><use fill="#fff" fill-opacity="0" stroke="#193340" stroke-miterlimit="50" stroke-width="2" xlink:href="#jpl2z"/></g><g transform="translate(-513 -1216)"><use fill="#fff" fill-opacity="0" stroke="#193340" stroke-miterlimit="50" stroke-width="2" xlink:href="#jpl2A"/></g><g transform="translate(-513 -1216)"><use fill="#fff" fill-opacity="0" stroke="#193340" stroke-miterlimit="50" stroke-width="2" xlink:href="#jpl2B"/></g><g transform="translate(-513 -1216)"><use fill="#fff" fill-opacity="0" stroke="#193340" stroke-miterlimit="50" stroke-width="2" xlink:href="#jpl2C"/></g><g transform="translate(-513 -1216)"><use fill="#fff" fill-opacity="0" stroke="#193340" stroke-miterlimit="50" stroke-width="2" xlink:href="#jpl2D"/></g><g transform="translate(-513 -1216)"><use fill="#fff" fill-opacity="0" stroke="#193340" stroke-miterlimit="50" stroke-width="2" xlink:href="#jpl2E"/></g><g transform="translate(-513 -1216)"><use fill="#fff" xlink:href="#jpl2F"/></g><g transform="translate(-513 -1216)"><use fill="#ff5b3b" xlink:href="#jpl2G"/></g><g transform="translate(-513 -1216)"><use fill="#ff5b3b" xlink:href="#jpl2H"/></g><g transform="translate(-513 -1216)"><g><use fill="#ff7257" xlink:href="#jpl2I"/></g><g><use fill="#ff7257" xlink:href="#jpl2J"/></g><g><use fill="#ff7257" xlink:href="#jpl2K"/></g></g><g transform="translate(-513 -1216)"><use fill="#d90014" xlink:href="#jpl2L"/></g><g transform="translate(-513 -1216)"><use fill="#d90014" xlink:href="#jpl2M"/></g><g transform="translate(-513 -1216)"><use fill="#c52754" xlink:href="#jpl2N"/></g></g></svg>