<svg xmlns="http://www.w3.org/2000/svg" xmlns:xlink="http://www.w3.org/1999/xlink" width="133" height="175" viewBox="0 0 133 175"><defs><path id="3t2ta" d="M566.906 1736.353v-21.184h12.895v21.184z"/><path id="3t2tb" d="M554.564 1667.354c0-21.072 16.472-38.154 36.79-38.154 20.32 0 36.791 17.082 36.791 38.154 0 21.072-16.471 38.154-36.79 38.154s-36.79-17.082-36.79-38.154z"/><path id="3t2tc" d="M518.523 1666.835c0-21.071 16.472-38.153 36.79-38.153 20.32 0 36.791 17.082 36.791 38.153 0 21.072-16.471 38.154-36.79 38.154s-36.79-17.082-36.79-38.154z"/><path id="3t2td" d="M522.512 1681.31c0-3.79 2.964-6.865 6.62-6.865s6.62 3.074 6.62 6.866c0 3.791-2.964 6.865-6.62 6.865s-6.62-3.074-6.62-6.865z"/><path id="3t2te" d="M525.627 1682.231c0-2.23 1.743-4.038 3.894-4.038 2.15 0 3.894 1.808 3.894 4.038 0 2.23-1.743 4.039-3.894 4.039-2.15 0-3.894-1.808-3.894-4.039z"/><path id="3t2tf" d="M609.832 1681.31c0-3.792 2.964-6.866 6.62-6.866s6.62 3.074 6.62 6.866c0 3.791-2.964 6.865-6.62 6.865s-6.62-3.074-6.62-6.865z"/><path id="3t2tg" d="M612.168 1681.713c0-2.23 1.743-4.039 3.894-4.039 2.15 0 3.894 1.808 3.894 4.039 0 2.23-1.743 4.038-3.894 4.038-2.15 0-3.894-1.808-3.894-4.038z"/><path id="3t2th" d="M532.04 1642.404c0-8.16 8.158-16.318 16.317-16.318h48.954c8.159 0 16.318 8.159 16.318 16.318v32.696c0 20.397-20.398 40.794-40.795 40.794-20.398 0-40.795-20.397-40.795-40.794z"/><path id="3t2ti" d="M558.068 1705.265c0-8.805 6.723-15.942 15.017-15.942 8.293 0 15.016 7.137 15.016 15.942s-6.723 15.943-15.016 15.943c-8.294 0-15.017-7.138-15.017-15.943z"/><path id="3t2tj" d="M556.566 1615.963c0-18.205 14.185-32.963 31.683-32.963 17.498 0 31.683 14.758 31.683 32.963 0 18.205-14.185 32.963-31.683 32.963-17.498 0-31.683-14.758-31.683-32.963z"/><path id="3t2tk" d="M595.406 1618.818c0-10.321 8.068-18.688 18.02-18.688s18.02 8.367 18.02 18.688c0 10.32-8.068 18.687-18.02 18.687s-18.02-8.367-18.02-18.687z"/><path id="3t2tl" d="M522.29 1622.711c0-12.184 9.577-22.061 21.393-22.061s21.394 9.877 21.394 22.061c0 12.185-9.578 22.062-21.394 22.062-11.816 0-21.394-9.877-21.394-22.062z"/><path id="3t2tm" d="M505.658 1649.704c0-15.051 8.595-27.253 19.197-27.253 10.603 0 19.197 12.202 19.197 27.253s-8.594 27.253-19.197 27.253c-10.602 0-19.197-12.202-19.197-27.253z"/><path id="3t2tn" d="M601.615 1648.926c0-15.195 8.014-27.513 17.9-27.513 9.885 0 17.899 12.318 17.899 27.513 0 15.194-8.014 27.512-17.9 27.512-9.885 0-17.899-12.318-17.899-27.512z"/><path id="3t2to" d="M542.238 1690.019c0-5.958 4.765-10.787 10.643-10.787 5.877 0 10.642 4.83 10.642 10.787 0 5.957-4.765 10.786-10.642 10.786-5.878 0-10.643-4.829-10.643-10.786z"/><path id="3t2tp" d="M527.867 1688.519a1.366 1.366 0 1 1 2.732 0 1.366 1.366 0 0 1-2.732 0z"/><path id="3t2tq" d="M574.326 1691.65a.77.77 0 1 1 1.538 0 .77.77 0 0 1-1.538 0z"/><path id="3t2tr" d="M571.125 1691.65a.77.77 0 1 1 1.538 0 .77.77 0 0 1-1.538 0z"/><path id="3t2ts" d="M549.262 1665.422c0-4.13 4.129-8.258 8.258-8.258s8.258 4.129 8.258 8.258v12.185c0 4.129-4.13 8.258-8.258 8.258-4.13 0-8.258-4.13-8.258-8.258z"/><path id="3t2tt" d="M553.076 1673.105a4.682 4.682 0 1 1 9.363 0 4.682 4.682 0 0 1-9.363 0z"/><path id="3t2tu" d="M556.543 1671.346a1.214 1.214 0 1 1 2.428 0 1.214 1.214 0 0 1-2.428 0z"/><path id="3t2tv" d="M583.246 1690.019c0-5.958 4.765-10.787 10.642-10.787 5.878 0 10.643 4.83 10.643 10.787 0 5.957-4.765 10.786-10.643 10.786-5.877 0-10.642-4.829-10.642-10.786z"/><path id="3t2tw" d="M580.928 1665.422c0-4.13 4.129-8.258 8.258-8.258s8.258 4.129 8.258 8.258v12.185c0 4.129-4.13 8.258-8.258 8.258-4.13 0-8.258-4.13-8.258-8.258z"/><path id="3t2tx" d="M584.742 1673.106a4.682 4.682 0 1 1 9.363 0 4.682 4.682 0 0 1-9.363 0z"/><path id="3t2ty" d="M588.209 1671.346a1.214 1.214 0 1 1 2.428 0 1.214 1.214 0 0 1-2.428 0z"/><path id="3t2tz" d="M543.695 1654.076l5.593 4.812"/><path id="3t2tA" d="M546.402 1650.97l4.24 6.105"/><path id="3t2tB" d="M550.229 1649.325l2.408 6.61"/><path id="3t2tC" d="M602.784 1654.04l-6.04 5.198"/><path id="3t2tD" d="M599.861 1650.687l-4.578 6.593"/><path id="3t2tE" d="M595.726 1648.91l-2.601 7.138"/><path id="3t2tF" d="M555.277 1650.679c-.135-.502.232-1.137.734-1.272l5.515-1.478c.502-.134 1.137.233 1.272.735.134.501-.233 1.137-.734 1.271l-5.516 1.478c-.501.134-1.137-.233-1.271-.734z"/><path id="3t2tG" d="M587.427 1650.664c-.117.506-.74.895-1.245.778l-5.564-1.284c-.506-.117-.895-.74-.778-1.246.117-.505.74-.894 1.245-.778l5.564 1.285c.506.117.895.74.778 1.245z"/><path id="3t2tH" d="M596.3 1590.037l.252 2.058a6.482 6.482 0 0 1 2.202.232 6.475 6.475 0 0 1 2.213 1.127 6.535 6.535 0 0 1 1.628 1.873 6.44 6.44 0 0 1 .619 1.472l2.072-.254a8.523 8.523 0 0 0-1.856-3.584 8.643 8.643 0 0 0-2.581-2.016 8.55 8.55 0 0 0-4.55-.908z"/><path id="3t2tI" d="M595.396 1591.183a1.036 1.036 0 1 1 2.057-.253 1.036 1.036 0 0 1-2.057.253z"/><path id="3t2tJ" d="M603.166 1596.649a1.05 1.05 0 0 1 .928-1.158 1.05 1.05 0 0 1 1.18.899 1.05 1.05 0 0 1-.928 1.158 1.05 1.05 0 0 1-1.18-.9z"/><path id="3t2tK" d="M584.565 1736.479c1.481 0 2.962 1.48 2.962 2.962 0 1.48-1.48 2.962-2.962 2.962H561.79c-1.482 0-2.963-1.481-2.963-2.962s1.481-2.962 2.963-2.962z"/><path id="3t2tL" d="M551.537 1745.081c0-2.5 2.5-5 5-5h32.732c2.5 0 5 2.5 5 5v12.58h-42.732z"/><path id="3t2tM" d="M565.908 1699.718h.001a8.466 8.466 0 0 0 5.365 4.335 8.491 8.491 0 0 0 6.069-.639l-.009.033a6.247 6.247 0 0 1-2.845 3.808 5.899 5.899 0 0 1-8.223-2.203 6.245 6.245 0 0 1-.568-4.688c.058-.217.128-.434.21-.645z"/></defs><g><g transform="translate(-505 -1583)"><use fill="#f4ac9b" xlink:href="#3t2ta"/></g><g transform="translate(-505 -1583)"><use fill="#eb4323" xlink:href="#3t2tb"/></g><g transform="translate(-505 -1583)"><use fill="#ff5b3b" xlink:href="#3t2tc"/></g><g transform="translate(-505 -1583)"><use fill="#efc2a2" xlink:href="#3t2td"/></g><g transform="translate(-505 -1583)"><use fill="#e39083" xlink:href="#3t2te"/></g><g transform="translate(-505 -1583)"><use fill="#efc2a2" xlink:href="#3t2tf"/></g><g transform="translate(-505 -1583)"><use fill="#e39083" xlink:href="#3t2tg"/></g><g transform="translate(-505 -1583)"><use fill="#f4c19b" xlink:href="#3t2th"/></g><g transform="translate(-505 -1583)"><use fill="#f4c19b" xlink:href="#3t2ti"/></g><g transform="translate(-505 -1583)"><use fill="#ff5b3b" xlink:href="#3t2tj"/></g><g transform="translate(-505 -1583)"><use fill="#ff5b3b" xlink:href="#3t2tk"/></g><g transform="translate(-505 -1583)"><use fill="#ff5b3b" xlink:href="#3t2tl"/></g><g transform="translate(-505 -1583)"><use fill="#ff5b3b" xlink:href="#3t2tm"/></g><g transform="translate(-505 -1583)"><use fill="#ff5b3b" xlink:href="#3t2tn"/></g><g transform="translate(-505 -1583)"><use fill="#f4ac9b" xlink:href="#3t2to"/></g><g transform="translate(-505 -1583)"><use fill="#fff" xlink:href="#3t2tp"/></g><g transform="translate(-505 -1583)"><use fill="#da4668" xlink:href="#3t2tq"/></g><g transform="translate(-505 -1583)"><use fill="#da4668" xlink:href="#3t2tr"/></g><g transform="translate(-505 -1583)"><use fill="#fff" xlink:href="#3t2ts"/></g><g transform="translate(-505 -1583)"><use fill="#2a96bf" xlink:href="#3t2tt"/></g><g transform="translate(-505 -1583)"><use fill="#fff" xlink:href="#3t2tu"/></g><g transform="translate(-505 -1583)"><use fill="#f4ac9b" xlink:href="#3t2tv"/></g><g transform="translate(-505 -1583)"><use fill="#fff" xlink:href="#3t2tw"/></g><g transform="translate(-505 -1583)"><use fill="#2a96bf" xlink:href="#3t2tx"/></g><g transform="translate(-505 -1583)"><use fill="#fff" xlink:href="#3t2ty"/></g><g transform="translate(-505 -1583)"><use fill="#fff" fill-opacity="0" stroke="#193340" stroke-miterlimit="50" stroke-width="2" xlink:href="#3t2tz"/></g><g transform="translate(-505 -1583)"><use fill="#fff" fill-opacity="0" stroke="#193340" stroke-miterlimit="50" stroke-width="2" xlink:href="#3t2tA"/></g><g transform="translate(-505 -1583)"><use fill="#fff" fill-opacity="0" stroke="#193340" stroke-miterlimit="50" stroke-width="2" xlink:href="#3t2tB"/></g><g transform="translate(-505 -1583)"><use fill="#fff" fill-opacity="0" stroke="#193340" stroke-miterlimit="50" stroke-width="2" xlink:href="#3t2tC"/></g><g transform="translate(-505 -1583)"><use fill="#fff" fill-opacity="0" stroke="#193340" stroke-miterlimit="50" stroke-width="2" xlink:href="#3t2tD"/></g><g transform="translate(-505 -1583)"><use fill="#fff" fill-opacity="0" stroke="#193340" stroke-miterlimit="50" stroke-width="2" xlink:href="#3t2tE"/></g><g transform="translate(-505 -1583)"><use fill="#ff5b3b" xlink:href="#3t2tF"/></g><g transform="translate(-505 -1583)"><use fill="#ff5b3b" xlink:href="#3t2tG"/></g><g transform="translate(-505 -1583)"><g><use fill="#ff7257" xlink:href="#3t2tH"/></g><g><use fill="#ff7257" xlink:href="#3t2tI"/></g><g><use fill="#ff7257" xlink:href="#3t2tJ"/></g></g><g transform="translate(-505 -1583)"><use fill="#d90014" xlink:href="#3t2tK"/></g><g transform="translate(-505 -1583)"><use fill="#d90014" xlink:href="#3t2tL"/></g><g transform="translate(-505 -1583)"><use fill="#c52754" xlink:href="#3t2tM"/></g></g></svg>