<svg xmlns="http://www.w3.org/2000/svg" xmlns:xlink="http://www.w3.org/1999/xlink" width="81" height="108" viewBox="0 0 81 108"><defs><path id="lgu6a" d="M586.967 804.474h-14.438c-10.768 0-19.529 8.76-19.529 19.529v22.115c0 .868.704 1.571 1.572 1.571h50.352c.868 0 1.571-.703 1.571-1.571v-22.115c0-10.768-8.76-19.529-19.528-19.529z"/><path id="lgu6b" d="M586.967 804.474h-5.727c10.768 0 19.529 8.76 19.529 19.529v22.115c0 .868-.704 1.571-1.572 1.571h5.727c.868 0 1.571-.703 1.571-1.571v-22.115c0-10.768-8.76-19.529-19.528-19.529z"/><path id="lgu6c" d="M581.987 804.474h-4.479l-5.984 20.34c-.128.436-.011.907.307 1.233l7.017 7.187a1.257 1.257 0 0 0 1.8 0l7.017-7.187c.317-.326.435-.797.306-1.233z"/><path id="lgu6d" d="M579.748 745c-12.02 0-21.765 9.745-21.765 21.765v10.493c0 12.02 9.745 21.765 21.765 21.765 12.02 0 21.765-9.744 21.765-21.765v-10.493c0-12.02-9.745-21.765-21.765-21.765z"/><path id="lgu6e" d="M579.748 745c-.489 0-.973.018-1.454.05 9.923.748 17.769 10.183 17.769 21.715v10.493c0 11.532-7.846 20.967-17.769 21.716.48.031.965.049 1.454.049 12.02 0 21.765-9.745 21.765-21.765v-10.493c0-12.02-9.745-21.765-21.765-21.765z"/><path id="lgu6f" d="M593.909 750.247v-.002c-.04-.035-.082-.067-.122-.101-.167-.14-.335-.28-.506-.416l-.235-.184a21.791 21.791 0 0 0-1.936-1.336c-.13-.079-.257-.158-.388-.234-.114-.067-.231-.132-.347-.197-.154-.086-.306-.172-.462-.255-.08-.042-.161-.082-.242-.123a21.637 21.637 0 0 0-9.923-2.399c-12.02 0-21.765 9.745-21.765 21.765v2.012a25.88 25.88 0 0 0 10.475 2.205c7.656 0 14.534-3.316 19.289-8.584 3.007 4.632 7.994 7.86 13.766 8.475v-4.108c0-6.61-2.951-12.528-7.604-16.518z"/><path id="lgu6g" d="M601.48 765.583a24.176 24.176 0 0 0-.04-.588c-.005-.073-.012-.146-.019-.219a21.109 21.109 0 0 0-.194-1.54l-.03-.18c-.024-.14-.05-.28-.077-.42l-.027-.14a21.96 21.96 0 0 0-.103-.487l-.014-.067a21.748 21.748 0 0 0-7.066-11.697c-.04-.035-.083-.067-.123-.1-.167-.142-.335-.28-.506-.417l-.235-.183a21.72 21.72 0 0 0-1.936-1.336c-.13-.08-.257-.158-.388-.235-.114-.067-.231-.131-.347-.197-.154-.086-.306-.172-.462-.254-.08-.043-.161-.083-.242-.124a21.62 21.62 0 0 0-7.273-2.238l-.036-.004a22.45 22.45 0 0 0-.562-.06l-.15-.013a20.683 20.683 0 0 0-1.094-.067l-.186-.008c-.203-.005-.407-.009-.611-.009h-.01c-.235 0-.468.005-.7.012l-.08.004c-.226.008-.45.019-.675.034 9.923.748 17.769 10.183 17.769 21.715v2.672a18.659 18.659 0 0 0 5.45 1.436v-4.108c0-.198-.003-.396-.008-.593l-.007-.182c-.005-.136-.01-.272-.017-.407z"/><path id="lgu6h" d="M579.749 792.364c-2.93 0-5.713-1.532-7.445-4.098a1.669 1.669 0 0 1 2.766-1.867c1.127 1.67 2.833 2.628 4.679 2.628s3.55-.958 4.676-2.627a1.669 1.669 0 0 1 2.767 1.865c-1.73 2.567-4.513 4.099-7.443 4.099z"/><path id="lgu6i" d="M633.673 850.132l-10.47-26.866c-.235-.603-.817-1-1.464-1h-39.904c-.648 0-1.23.397-1.465 1l-10.47 26.866a1.572 1.572 0 0 0 1.464 2.142h60.845a1.571 1.571 0 0 0 1.464-2.142z"/><path id="lgu6j" d="M620.265 841.62h-36.956a1.571 1.571 0 0 1 0-3.143h36.956a1.571 1.571 0 1 1 0 3.143z"/><path id="lgu6k" d="M613.987 828.495l-7.039 5.52c-1.211.95-3 .299-3.317-1.208l-1.844-8.752 17.943-49.298a2.131 2.131 0 0 1 2.731-1.274l8.195 2.983a2.131 2.131 0 0 1 1.274 2.731z"/><path id="lgu6l" d="M630.656 776.466l-3.216-1.17c.237.086.104 1.052-.299 2.158l-17.943 49.299-3.552 6.787c-.305.585-.554.842-.692.792a2.061 2.061 0 0 0 1.994-.318l7.039-5.519 17.943-49.298a2.13 2.13 0 0 0-1.274-2.731z"/><path id="lgu6m" d="M606.948 834.014l7.038-5.518-12.2-4.44 1.845 8.751c.317 1.507 2.106 2.157 3.317 1.207z"/><path id="lgu6n" d="M613.987 828.495l-4.789-1.742-3.552 6.787c-.305.585-.554.842-.692.792.451.164.957.17 1.43-.004a2.08 2.08 0 0 0 .564-.314z"/></defs><g><g transform="translate(-553 -745)"><g><use fill="#d90014" xlink:href="#lgu6a"/></g><g><use fill="#d90014" xlink:href="#lgu6b"/></g><g><use fill="#444966" xlink:href="#lgu6c"/></g><g><use fill="#f9c295" xlink:href="#lgu6d"/></g><g><use fill="#e59f6a" xlink:href="#lgu6e"/></g><g><use fill="#444966" xlink:href="#lgu6f"/></g><g><use fill="#2e344c" xlink:href="#lgu6g"/></g><g><use fill="#e59f6a" xlink:href="#lgu6h"/></g><g><use fill="#ebeef2" xlink:href="#lgu6i"/></g><g><use fill="#1b3d66" xlink:href="#lgu6j"/></g><g><use fill="#fcab29" xlink:href="#lgu6k"/></g><g><use fill="#dd8d19" xlink:href="#lgu6l"/></g><g><use fill="#656d88" xlink:href="#lgu6m"/></g><g><use fill="#2e344c" xlink:href="#lgu6n"/></g></g></g></svg>