<svg xmlns="http://www.w3.org/2000/svg" xmlns:xlink="http://www.w3.org/1999/xlink" width="133" height="175" viewBox="0 0 133 175"><defs><path id="g1m6a" d="M573.907 1039.267v-21.184h12.894v21.184z"/><path id="g1m6b" d="M561.564 970.269c0-21.072 16.472-38.154 36.79-38.154 20.32 0 36.79 17.082 36.79 38.154 0 21.071-16.47 38.153-36.79 38.153-20.318 0-36.79-17.082-36.79-38.153z"/><path id="g1m6c" d="M525.524 969.75c0-21.072 16.472-38.154 36.79-38.154 20.32 0 36.791 17.082 36.791 38.154 0 21.071-16.471 38.153-36.79 38.153s-36.79-17.082-36.79-38.153z"/><path id="g1m6d" d="M529.511 984.225c0-3.792 2.964-6.865 6.62-6.865s6.62 3.073 6.62 6.865c0 3.792-2.964 6.865-6.62 6.865s-6.62-3.073-6.62-6.865z"/><path id="g1m6e" d="M532.627 985.147c0-2.23 1.744-4.039 3.894-4.039 2.15 0 3.894 1.808 3.894 4.039 0 2.23-1.743 4.038-3.894 4.038-2.15 0-3.894-1.808-3.894-4.038z"/><path id="g1m6f" d="M616.832 984.225c0-3.792 2.964-6.866 6.62-6.866 3.657 0 6.62 3.074 6.62 6.866 0 3.791-2.963 6.865-6.62 6.865-3.656 0-6.62-3.074-6.62-6.865z"/><path id="g1m6g" d="M619.169 984.627c0-2.23 1.743-4.038 3.894-4.038 2.15 0 3.894 1.808 3.894 4.038 0 2.23-1.744 4.039-3.894 4.039-2.15 0-3.894-1.808-3.894-4.039z"/><path id="g1m6h" d="M539.04 945.319c0-8.16 8.158-16.318 16.317-16.318h48.954c8.159 0 16.318 8.159 16.318 16.318v32.694c0 20.398-20.398 40.795-40.795 40.795-20.397 0-40.795-20.397-40.795-40.795z"/><path id="g1m6i" d="M565.068 1008.18c0-8.805 6.723-15.942 15.016-15.942 8.294 0 15.017 7.137 15.017 15.942s-6.723 15.942-15.017 15.942c-8.293 0-15.016-7.137-15.016-15.942z"/><path id="g1m6j" d="M563.566 918.878c0-18.204 14.185-32.962 31.683-32.962 17.498 0 31.683 14.758 31.683 32.962 0 18.205-14.185 32.963-31.683 32.963-17.498 0-31.683-14.758-31.683-32.963z"/><path id="g1m6k" d="M602.405 921.733c0-10.32 8.068-18.687 18.02-18.687s18.02 8.367 18.02 18.687c0 10.321-8.068 18.688-18.02 18.688s-18.02-8.367-18.02-18.688z"/><path id="g1m6l" d="M529.288 925.626c0-12.184 9.578-22.061 21.394-22.061 11.815 0 21.393 9.877 21.393 22.061 0 12.185-9.578 22.062-21.393 22.062-11.816 0-21.394-9.877-21.394-22.062z"/><path id="g1m6m" d="M512.658 952.62c0-15.052 8.595-27.253 19.197-27.253 10.603 0 19.197 12.201 19.197 27.252 0 15.052-8.594 27.253-19.197 27.253-10.602 0-19.197-12.201-19.197-27.253z"/><path id="g1m6n" d="M608.616 951.84c0-15.194 8.013-27.511 17.899-27.511 9.886 0 17.9 12.317 17.9 27.512 0 15.194-8.014 27.512-17.9 27.512s-17.9-12.318-17.9-27.512z"/><path id="g1m6o" d="M549.238 992.933c0-5.957 4.765-10.787 10.643-10.787 5.877 0 10.642 4.83 10.642 10.787 0 5.957-4.765 10.787-10.642 10.787-5.878 0-10.643-4.83-10.643-10.787z"/><path id="g1m6p" d="M534.868 991.433a1.366 1.366 0 1 1 2.732 0 1.366 1.366 0 0 1-2.732 0z"/><path id="g1m6q" d="M581.327 994.564a.77.77 0 1 1 1.538 0 .77.77 0 0 1-1.538 0z"/><path id="g1m6r" d="M578.126 994.564a.77.77 0 1 1 1.538 0 .77.77 0 0 1-1.538 0z"/><path id="g1m6s" d="M556.262 968.338c0-4.13 4.13-8.259 8.259-8.259 4.129 0 8.258 4.13 8.258 8.259v12.184c0 4.13-4.13 8.258-8.258 8.258-4.13 0-8.259-4.129-8.259-8.258z"/><path id="g1m6t" d="M560.076 976.02a4.682 4.682 0 1 1 9.363 0 4.682 4.682 0 0 1-9.363 0z"/><path id="g1m6u" d="M563.544 974.261a1.214 1.214 0 1 1 2.428 0 1.214 1.214 0 0 1-2.428 0z"/><path id="g1m6v" d="M590.247 992.933c0-5.957 4.765-10.787 10.642-10.787 5.878 0 10.643 4.83 10.643 10.787 0 5.957-4.765 10.787-10.643 10.787-5.877 0-10.642-4.83-10.642-10.787z"/><path id="g1m6w" d="M587.927 968.337c0-4.129 4.13-8.258 8.259-8.258 4.129 0 8.258 4.13 8.258 8.258v12.185c0 4.129-4.13 8.258-8.258 8.258-4.13 0-8.259-4.129-8.259-8.258z"/><path id="g1m6x" d="M591.741 976.02a4.682 4.682 0 1 1 9.363 0 4.682 4.682 0 0 1-9.363 0z"/><path id="g1m6y" d="M595.209 974.261a1.214 1.214 0 1 1 2.428 0 1.214 1.214 0 0 1-2.428 0z"/><path id="g1m6z" d="M550.695 956.99l5.592 4.812"/><path id="g1m6A" d="M553.401 953.885l4.24 6.105"/><path id="g1m6B" d="M557.229 952.24l2.408 6.609"/><path id="g1m6C" d="M609.784 956.955l-6.04 5.198"/><path id="g1m6D" d="M606.86 953.602l-4.578 6.593"/><path id="g1m6E" d="M602.727 951.824l-2.6 7.139"/><path id="g1m6F" d="M622.076 991.433a1.366 1.366 0 1 1 2.732 0 1.366 1.366 0 0 1-2.732 0z"/><path id="g1m6G" d="M565.22 957.52c-.135-.501.232-1.137.734-1.271l5.515-1.478c.502-.134 1.138.233 1.272.734.134.501-.233 1.137-.734 1.271l-5.516 1.478c-.501.135-1.137-.232-1.271-.734z"/><path id="g1m6H" d="M595.866 957.637c-.134.502-.77.869-1.271.734l-5.516-1.477c-.501-.135-.868-.77-.734-1.272.134-.501.77-.868 1.272-.734l5.515 1.478c.502.134.869.77.734 1.271z"/><path id="g1m6I" d="M583.102 1003.739s-6.169-1.958-8.954 2.4"/><path id="g1m6J" d="M603.3 897.86h-.001l.253 2.058a6.482 6.482 0 0 1 2.202.232 6.475 6.475 0 0 1 2.213 1.127 6.536 6.536 0 0 1 1.628 1.874 6.441 6.441 0 0 1 .619 1.472l2.072-.254a8.523 8.523 0 0 0-1.856-3.584 8.643 8.643 0 0 0-2.581-2.017 8.55 8.55 0 0 0-4.55-.908z"/><path id="g1m6K" d="M602.396 899.006a1.036 1.036 0 1 1 2.057-.252 1.036 1.036 0 0 1-2.057.252z"/><path id="g1m6L" d="M610.166 904.472a1.05 1.05 0 0 1 .927-1.157 1.05 1.05 0 0 1 1.18.899 1.05 1.05 0 0 1-.927 1.157 1.05 1.05 0 0 1-1.18-.899z"/><path id="g1m6M" d="M591.566 1039.393c1.482 0 2.963 1.481 2.963 2.962 0 1.482-1.481 2.963-2.963 2.963H568.79c-1.481 0-2.962-1.481-2.962-2.963 0-1.48 1.48-2.962 2.962-2.962z"/><path id="g1m6N" d="M558.537 1047.996c0-2.5 2.5-5 5-5h32.732c2.5 0 5 2.5 5 5v12.578h-42.732z"/></defs><g><g transform="translate(-512 -886)"><g><use fill="#f4ac9b" xlink:href="#g1m6a"/></g><g><use fill="#eb4323" xlink:href="#g1m6b"/></g><g><use fill="#ff5b3b" xlink:href="#g1m6c"/></g><g><use fill="#efc2a2" xlink:href="#g1m6d"/></g><g><use fill="#e39083" xlink:href="#g1m6e"/></g><g><use fill="#efc2a2" xlink:href="#g1m6f"/></g><g><use fill="#e39083" xlink:href="#g1m6g"/></g><g><use fill="#f4c19b" xlink:href="#g1m6h"/></g><g><use fill="#f4c19b" xlink:href="#g1m6i"/></g><g><use fill="#ff5b3b" xlink:href="#g1m6j"/></g><g><use fill="#ff5b3b" xlink:href="#g1m6k"/></g><g><use fill="#ff5b3b" xlink:href="#g1m6l"/></g><g><use fill="#ff5b3b" xlink:href="#g1m6m"/></g><g><use fill="#ff5b3b" xlink:href="#g1m6n"/></g><g><use fill="#f4ac9b" xlink:href="#g1m6o"/></g><g><use fill="#fff" xlink:href="#g1m6p"/></g><g><use fill="#da4668" xlink:href="#g1m6q"/></g><g><use fill="#da4668" xlink:href="#g1m6r"/></g><g><use fill="#fff" xlink:href="#g1m6s"/></g><g><use fill="#2a96bf" xlink:href="#g1m6t"/></g><g><use fill="#fff" xlink:href="#g1m6u"/></g><g><use fill="#f4ac9b" xlink:href="#g1m6v"/></g><g><use fill="#fff" xlink:href="#g1m6w"/></g><g><use fill="#2a96bf" xlink:href="#g1m6x"/></g><g><use fill="#fff" xlink:href="#g1m6y"/></g><g><use fill="#fff" fill-opacity="0" stroke="#193340" stroke-miterlimit="50" stroke-width="2" xlink:href="#g1m6z"/></g><g><use fill="#fff" fill-opacity="0" stroke="#193340" stroke-miterlimit="50" stroke-width="2" xlink:href="#g1m6A"/></g><g><use fill="#fff" fill-opacity="0" stroke="#193340" stroke-miterlimit="50" stroke-width="2" xlink:href="#g1m6B"/></g><g><use fill="#fff" fill-opacity="0" stroke="#193340" stroke-miterlimit="50" stroke-width="2" xlink:href="#g1m6C"/></g><g><use fill="#fff" fill-opacity="0" stroke="#193340" stroke-miterlimit="50" stroke-width="2" xlink:href="#g1m6D"/></g><g><use fill="#fff" fill-opacity="0" stroke="#193340" stroke-miterlimit="50" stroke-width="2" xlink:href="#g1m6E"/></g><g><use fill="#fff" xlink:href="#g1m6F"/></g><g><use fill="#ff5b3b" xlink:href="#g1m6G"/></g><g><use fill="#ff5b3b" xlink:href="#g1m6H"/></g><g><use fill="#fff" fill-opacity="0" stroke="#c52754" stroke-miterlimit="50" stroke-width="3" xlink:href="#g1m6I"/></g><g><g><use fill="#ff7257" xlink:href="#g1m6J"/></g><g><use fill="#ff7257" xlink:href="#g1m6K"/></g><g><use fill="#ff7257" xlink:href="#g1m6L"/></g></g><g><use fill="#d90014" xlink:href="#g1m6M"/></g><g><use fill="#d90014" xlink:href="#g1m6N"/></g></g></g></svg>