<svg xmlns="http://www.w3.org/2000/svg" xmlns:xlink="http://www.w3.org/1999/xlink" width="18" height="18" viewBox="0 0 18 18"><defs><path id="byaaa" d="M1090.734 314.3zm-.103.264a.356.356 0 0 1-.264.103h-5.133a.357.357 0 0 1-.264-.103.356.356 0 0 1-.103-.264v-1.833c0-.107.034-.195.103-.264a.358.358 0 0 1 .264-.103h1.1v-3.666h-1.1a.357.357 0 0 1-.264-.104.357.357 0 0 1-.103-.263v-1.833c0-.107.034-.195.103-.264a.357.357 0 0 1 .264-.103h3.667c.107 0 .194.034.263.103a.357.357 0 0 1 .103.264v5.866h1.1c.107 0 .195.035.264.103a.358.358 0 0 1 .103.264v1.834a.357.357 0 0 1-.103.263zm-4.297-12.364c0-.107.034-.195.103-.264a.357.357 0 0 1 .263-.103h2.2c.108 0 .195.035.264.103a.357.357 0 0 1 .103.264v1.833a.357.357 0 0 1-.103.264.356.356 0 0 1-.263.103h-2.2a.357.357 0 0 1-.264-.103.356.356 0 0 1-.103-.264zm9.087 2.183a8.763 8.763 0 0 0-3.203-3.203 8.608 8.608 0 0 0-4.417-1.18c-1.597 0-3.07.393-4.418 1.18a8.761 8.761 0 0 0-3.203 3.203 8.608 8.608 0 0 0-1.18 4.417 8.61 8.61 0 0 0 1.18 4.418 8.763 8.763 0 0 0 3.203 3.202 8.609 8.609 0 0 0 4.417 1.18 8.61 8.61 0 0 0 4.418-1.18 8.761 8.761 0 0 0 3.202-3.202 8.61 8.61 0 0 0 1.18-4.418 8.61 8.61 0 0 0-1.18-4.417z"/></defs><g><g transform="translate(-1079 -300)"><use fill="#3f73d2" xlink:href="#byaaa"/></g></g></svg>