<svg xmlns="http://www.w3.org/2000/svg" width="122.977" height="118.027" viewBox="0 0 122.977 118.027">
  <g id="Group_5" data-name="Group 5" transform="translate(-904.317 -405.09)">
    <path id="Path_66" data-name="Path 66" d="M5522.848,14346.77s18.541-38.9,20.992-37.156,19.666,37.156,19.666,37.156,40.615,5.547,40.363,8.6-27.738,29.984-27.738,29.984,7.777,42.727,4.285,41.742-36.576-18.742-36.576-18.742-39.012,22.813-38.963,18.742c.049-4.055,7.787-41.742,7.787-41.742s-34.369-25.039-31.613-29.984C5483.8,14350.441,5522.848,14346.77,5522.848,14346.77Z" transform="translate(-4576.576 -13904.467)" fill="#efefef"/>
    <path id="Intersection_2" data-name="Intersection 2" d="M23.983,145.631c.049-4.054,7.788-41.742,7.788-41.742S5.3,84.6.682,76.539V73.3c5.4-4.621,41.272-7.994,41.272-7.994S59.4,28.71,62.682,28.1v98.944c-3.114,1.813-32.9,19.073-37.968,19.075C24.237,146.118,23.979,145.964,23.983,145.631Z" transform="translate(904.317 377)" fill="#ffc400"/>
  </g>
</svg>
