<svg xmlns="http://www.w3.org/2000/svg" width="122.977" height="118.028" viewBox="0 0 122.977 118.028">
  <g id="Group_2" data-name="Group 2" transform="translate(-475.317 -405.09)">
    <path id="Path_66" data-name="Path 66" d="M5522.848,14346.77s18.541-38.9,20.992-37.156,19.666,37.156,19.666,37.156,40.615,5.547,40.363,8.6-27.738,29.984-27.738,29.984,7.777,42.727,4.285,41.742-36.576-18.742-36.576-18.742-39.012,22.813-38.963,18.742c.049-4.055,7.787-41.742,7.787-41.742s-34.369-25.039-31.613-29.984C5483.8,14350.441,5522.848,14346.77,5522.848,14346.77Z" transform="translate(-5005.576 -13904.467)" fill="#efefef"/>
    <path id="Intersection_3" data-name="Intersection 3" d="M24.3,117.631c.04-3.37,5.393-29.972,7.2-38.861v37.154c-3,1.343-5.342,2.193-6.468,2.194C24.554,118.118,24.3,117.965,24.3,117.631ZM.5,47.486V45.86c1.944-3.216,19.281-5.893,31-7.355V75.457C27.374,72.417,2.865,54.144.5,47.486Z" transform="translate(475 405)" fill="#ffc400"/>
  </g>
</svg>
