<svg xmlns="http://www.w3.org/2000/svg" width="122.977" height="118.028" viewBox="0 0 122.977 118.028">
  <g id="Group_4" data-name="Group 4" transform="translate(-761.317 -405.09)">
    <path id="Path_66" data-name="Path 66" d="M5522.848,14346.77s18.541-38.9,20.992-37.156,19.666,37.156,19.666,37.156,40.615,5.547,40.363,8.6-27.738,29.984-27.738,29.984,7.777,42.727,4.285,41.742-36.576-18.742-36.576-18.742-39.012,22.813-38.963,18.742c.049-4.055,7.787-41.742,7.787-41.742s-34.369-25.039-31.613-29.984C5483.8,14350.441,5522.848,14346.77,5522.848,14346.77Z" transform="translate(-4719.576 -13904.467)" fill="#efefef"/>
    <path id="Intersection_5" data-name="Intersection 5" d="M24.3,117.631c.049-4.055,7.787-41.742,7.787-41.742S3.084,54.758.5,47.486V45.86C3.466,40.952,42.271,37.3,42.271,37.3S49.479,22.181,55.5,11.217v92.117c-10.069,5.679-26.785,14.782-30.468,14.784C24.554,118.118,24.3,117.965,24.3,117.631Z" transform="translate(761 405)" fill="#ffc400"/>
  </g>
</svg>
