<svg xmlns="http://www.w3.org/2000/svg" width="122.977" height="118.027" viewBox="0 0 122.977 118.027">
  <g id="Group_1" data-name="Group 1" transform="translate(-332.317 -405.09)">
    <path id="Path_66" data-name="Path 66" d="M5522.848,14346.77s18.541-38.9,20.992-37.156,19.666,37.156,19.666,37.156,40.615,5.547,40.363,8.6-27.738,29.984-27.738,29.984,7.777,42.727,4.285,41.742-36.576-18.742-36.576-18.742-39.012,22.813-38.963,18.742c.049-4.055,7.787-41.742,7.787-41.742s-34.369-25.039-31.613-29.984C5483.8,14350.441,5522.848,14346.77,5522.848,14346.77Z" transform="translate(-5148.576 -13904.467)" fill="#efefef"/>
    <path id="Intersection_1" data-name="Intersection 1" d="M42.475,45.9C43.833,43.473,54.023,41.346,64,39.817V68.211C54.1,60.418,40.715,49.063,42.475,45.9Z" transform="translate(290 405)" fill="#ffc400"/>
  </g>
</svg>
