<svg xmlns="http://www.w3.org/2000/svg" width="122.977" height="118.027" viewBox="0 0 122.977 118.027">
  <g id="Group_10" data-name="Group 10" transform="translate(-1047.317 -405.09)">
    <path id="Path_66" data-name="Path 66" d="M5522.848,14346.77s18.541-38.9,20.992-37.156,19.666,37.156,19.666,37.156,40.615,5.547,40.363,8.6-27.738,29.984-27.738,29.984,7.777,42.727,4.285,41.742-36.576-18.742-36.576-18.742-39.012,22.813-38.963,18.742c.049-4.055,7.787-41.742,7.787-41.742s-34.369-25.039-31.613-29.984C5483.8,14350.441,5522.848,14346.77,5522.848,14346.77Z" transform="translate(-4433.576 -13904.467)" fill="#efefef"/>
    <path id="Intersection_6" data-name="Intersection 6" d="M24.3,125.631c.049-4.055,7.787-41.742,7.787-41.742S3.084,62.758.5,55.486V53.86C3.466,48.952,42.271,45.3,42.271,45.3S60.812,6.4,63.264,8.147c1.181.835,5.782,9.475,10.237,18.214v85.981c-5.8-3.069-10.237-5.453-10.237-5.453s-32.883,19.228-38.232,19.229C24.555,126.117,24.3,125.964,24.3,125.631Z" transform="translate(1047 397)" fill="#ffc400"/>
  </g>
</svg>
